<mxfile host="app.diagrams.net" modified="2021-10-19T05:06:01.213Z" agent="5.0 (Windows NT 10.0; Win64; x64) AppleWebKit/537.36 (KHTML, like Gecko) Chrome/94.0.4606.81 Safari/537.36" etag="v2UAqxzgoOiuIxV6i5T6" version="15.5.5" type="github">
  <diagram id="sapSyAzFganQaCwKMjWs" name="Page-1">
    <mxGraphModel dx="1422" dy="705" grid="1" gridSize="10" guides="1" tooltips="1" connect="1" arrows="1" fold="1" page="1" pageScale="1" pageWidth="850" pageHeight="1100" math="0" shadow="0">
      <root>
        <mxCell id="0" />
        <mxCell id="1" parent="0" />
        <mxCell id="gB2YIRhw-Yu3a5lNUNe6-24" style="edgeStyle=orthogonalEdgeStyle;rounded=0;orthogonalLoop=1;jettySize=auto;html=1;" edge="1" parent="1" source="gB2YIRhw-Yu3a5lNUNe6-1" target="gB2YIRhw-Yu3a5lNUNe6-2">
          <mxGeometry relative="1" as="geometry" />
        </mxCell>
        <mxCell id="gB2YIRhw-Yu3a5lNUNe6-1" value="Smart Security Service" style="sketch=0;outlineConnect=0;fontColor=#232F3E;gradientColor=none;strokeColor=#ffffff;fillColor=#232F3E;dashed=0;verticalLabelPosition=middle;verticalAlign=bottom;align=center;html=1;whiteSpace=wrap;fontSize=10;fontStyle=1;spacing=3;shape=mxgraph.aws4.productIcon;prIcon=mxgraph.aws4.ec2;" vertex="1" parent="1">
          <mxGeometry x="110" y="190" width="90" height="120" as="geometry" />
        </mxCell>
        <mxCell id="gB2YIRhw-Yu3a5lNUNe6-2" value="" style="rounded=1;whiteSpace=wrap;html=1;" vertex="1" parent="1">
          <mxGeometry x="260" y="100" width="120" height="300" as="geometry" />
        </mxCell>
        <mxCell id="gB2YIRhw-Yu3a5lNUNe6-17" style="edgeStyle=orthogonalEdgeStyle;rounded=0;orthogonalLoop=1;jettySize=auto;html=1;entryX=0;entryY=0.5;entryDx=0;entryDy=0;" edge="1" parent="1" source="gB2YIRhw-Yu3a5lNUNe6-3" target="gB2YIRhw-Yu3a5lNUNe6-8">
          <mxGeometry relative="1" as="geometry" />
        </mxCell>
        <mxCell id="gB2YIRhw-Yu3a5lNUNe6-3" value="System logs" style="sketch=0;outlineConnect=0;fontColor=#232F3E;gradientColor=none;strokeColor=#232F3E;fillColor=#ffffff;dashed=0;verticalLabelPosition=bottom;verticalAlign=top;align=center;html=1;fontSize=12;fontStyle=0;aspect=fixed;shape=mxgraph.aws4.resourceIcon;resIcon=mxgraph.aws4.flow_logs;" vertex="1" parent="1">
          <mxGeometry x="290" y="120" width="60" height="60" as="geometry" />
        </mxCell>
        <mxCell id="gB2YIRhw-Yu3a5lNUNe6-21" style="edgeStyle=orthogonalEdgeStyle;rounded=0;orthogonalLoop=1;jettySize=auto;html=1;" edge="1" parent="1" source="gB2YIRhw-Yu3a5lNUNe6-4" target="gB2YIRhw-Yu3a5lNUNe6-18">
          <mxGeometry relative="1" as="geometry">
            <Array as="points">
              <mxPoint x="450" y="330" />
              <mxPoint x="450" y="297" />
            </Array>
          </mxGeometry>
        </mxCell>
        <mxCell id="gB2YIRhw-Yu3a5lNUNe6-23" value="Error Logs" style="edgeLabel;html=1;align=center;verticalAlign=middle;resizable=0;points=[];" vertex="1" connectable="0" parent="gB2YIRhw-Yu3a5lNUNe6-21">
          <mxGeometry x="-0.4474" relative="1" as="geometry">
            <mxPoint as="offset" />
          </mxGeometry>
        </mxCell>
        <mxCell id="gB2YIRhw-Yu3a5lNUNe6-26" style="edgeStyle=orthogonalEdgeStyle;rounded=0;orthogonalLoop=1;jettySize=auto;html=1;entryX=0;entryY=0.5;entryDx=0;entryDy=0;" edge="1" parent="1" source="gB2YIRhw-Yu3a5lNUNe6-4" target="gB2YIRhw-Yu3a5lNUNe6-25">
          <mxGeometry relative="1" as="geometry">
            <Array as="points">
              <mxPoint x="325" y="460" />
            </Array>
          </mxGeometry>
        </mxCell>
        <mxCell id="gB2YIRhw-Yu3a5lNUNe6-4" value="Error Logs" style="sketch=0;outlineConnect=0;fontColor=#232F3E;gradientColor=none;strokeColor=#232F3E;fillColor=#ffffff;dashed=0;verticalLabelPosition=bottom;verticalAlign=top;align=center;html=1;fontSize=12;fontStyle=0;aspect=fixed;shape=mxgraph.aws4.resourceIcon;resIcon=mxgraph.aws4.flow_logs;" vertex="1" parent="1">
          <mxGeometry x="295" y="300" width="60" height="60" as="geometry" />
        </mxCell>
        <mxCell id="gB2YIRhw-Yu3a5lNUNe6-19" style="edgeStyle=orthogonalEdgeStyle;rounded=0;orthogonalLoop=1;jettySize=auto;html=1;" edge="1" parent="1" source="gB2YIRhw-Yu3a5lNUNe6-5" target="gB2YIRhw-Yu3a5lNUNe6-18">
          <mxGeometry relative="1" as="geometry" />
        </mxCell>
        <mxCell id="gB2YIRhw-Yu3a5lNUNe6-22" value="Info Logs" style="edgeLabel;html=1;align=center;verticalAlign=middle;resizable=0;points=[];" vertex="1" connectable="0" parent="gB2YIRhw-Yu3a5lNUNe6-19">
          <mxGeometry x="-0.501" y="2" relative="1" as="geometry">
            <mxPoint as="offset" />
          </mxGeometry>
        </mxCell>
        <mxCell id="gB2YIRhw-Yu3a5lNUNe6-5" value="Info Logs" style="sketch=0;outlineConnect=0;fontColor=#232F3E;gradientColor=none;strokeColor=#232F3E;fillColor=#ffffff;dashed=0;verticalLabelPosition=bottom;verticalAlign=top;align=center;html=1;fontSize=12;fontStyle=0;aspect=fixed;shape=mxgraph.aws4.resourceIcon;resIcon=mxgraph.aws4.flow_logs;" vertex="1" parent="1">
          <mxGeometry x="290" y="210" width="60" height="60" as="geometry" />
        </mxCell>
        <mxCell id="gB2YIRhw-Yu3a5lNUNe6-8" value="" style="rounded=1;whiteSpace=wrap;html=1;" vertex="1" parent="1">
          <mxGeometry x="480" y="92.5" width="300" height="115" as="geometry" />
        </mxCell>
        <mxCell id="gB2YIRhw-Yu3a5lNUNe6-9" value="Project&amp;nbsp;&lt;br&gt;DashBoard" style="sketch=0;pointerEvents=1;shadow=0;dashed=0;html=1;strokeColor=none;fillColor=#434445;aspect=fixed;labelPosition=center;verticalLabelPosition=bottom;verticalAlign=top;align=center;outlineConnect=0;shape=mxgraph.vvd.nsx_dashboard;" vertex="1" parent="1">
          <mxGeometry x="500" y="117.5" width="50" height="46.5" as="geometry" />
        </mxCell>
        <mxCell id="gB2YIRhw-Yu3a5lNUNe6-10" value="Service&lt;br&gt;DashBoard" style="sketch=0;pointerEvents=1;shadow=0;dashed=0;html=1;strokeColor=none;fillColor=#434445;aspect=fixed;labelPosition=center;verticalLabelPosition=bottom;verticalAlign=top;align=center;outlineConnect=0;shape=mxgraph.vvd.nsx_dashboard;" vertex="1" parent="1">
          <mxGeometry x="600" y="117.5" width="50" height="46.5" as="geometry" />
        </mxCell>
        <mxCell id="gB2YIRhw-Yu3a5lNUNe6-11" value="Saturation&amp;nbsp;&lt;br&gt;Report" style="sketch=0;pointerEvents=1;shadow=0;dashed=0;html=1;strokeColor=none;fillColor=#434445;aspect=fixed;labelPosition=center;verticalLabelPosition=bottom;verticalAlign=top;align=center;outlineConnect=0;shape=mxgraph.vvd.nsx_dashboard;" vertex="1" parent="1">
          <mxGeometry x="700" y="117.5" width="50" height="46.5" as="geometry" />
        </mxCell>
        <mxCell id="gB2YIRhw-Yu3a5lNUNe6-18" value="Monitoring&amp;nbsp;&lt;br&gt;DashBoard" style="sketch=0;pointerEvents=1;shadow=0;dashed=0;html=1;strokeColor=none;fillColor=#434445;aspect=fixed;labelPosition=center;verticalLabelPosition=bottom;verticalAlign=top;align=center;outlineConnect=0;shape=mxgraph.vvd.nsx_dashboard;" vertex="1" parent="1">
          <mxGeometry x="550" y="250" width="100" height="93" as="geometry" />
        </mxCell>
        <mxCell id="gB2YIRhw-Yu3a5lNUNe6-28" style="edgeStyle=orthogonalEdgeStyle;rounded=0;orthogonalLoop=1;jettySize=auto;html=1;entryX=0;entryY=0.5;entryDx=0;entryDy=0;" edge="1" parent="1" source="gB2YIRhw-Yu3a5lNUNe6-25" target="gB2YIRhw-Yu3a5lNUNe6-27">
          <mxGeometry relative="1" as="geometry" />
        </mxCell>
        <mxCell id="gB2YIRhw-Yu3a5lNUNe6-25" value="RPN &amp;gt;5" style="rhombus;whiteSpace=wrap;html=1;" vertex="1" parent="1">
          <mxGeometry x="425" y="420" width="80" height="80" as="geometry" />
        </mxCell>
        <mxCell id="gB2YIRhw-Yu3a5lNUNe6-27" value="" style="rounded=1;whiteSpace=wrap;html=1;" vertex="1" parent="1">
          <mxGeometry x="555" y="398.75" width="270" height="122.5" as="geometry" />
        </mxCell>
        <mxCell id="gB2YIRhw-Yu3a5lNUNe6-29" value="Teams &lt;br&gt;Notification" style="shape=image;html=1;verticalAlign=top;verticalLabelPosition=bottom;labelBackgroundColor=#ffffff;imageAspect=0;aspect=fixed;image=https://cdn0.iconfinder.com/data/icons/logos-microsoft-office-365/128/Microsoft_Office-10-128.png" vertex="1" parent="1">
          <mxGeometry x="580" y="422.5" width="50" height="50" as="geometry" />
        </mxCell>
        <mxCell id="gB2YIRhw-Yu3a5lNUNe6-31" value="Email" style="sketch=0;outlineConnect=0;fontColor=#232F3E;gradientColor=none;strokeColor=#232F3E;fillColor=#ffffff;dashed=0;verticalLabelPosition=bottom;verticalAlign=top;align=center;html=1;fontSize=12;fontStyle=0;aspect=fixed;shape=mxgraph.aws4.resourceIcon;resIcon=mxgraph.aws4.email;" vertex="1" parent="1">
          <mxGeometry x="660" y="422.5" width="60" height="60" as="geometry" />
        </mxCell>
        <mxCell id="gB2YIRhw-Yu3a5lNUNe6-33" value="Victor Ops" style="shape=image;verticalLabelPosition=bottom;labelBackgroundColor=#ffffff;verticalAlign=top;aspect=fixed;imageAspect=0;image=data:image/png,iVBORw0KGgoAAAANSUhEUgAAAggAAAHkCAYAAABbktcHAAAAAXNSR0IArs4c6QAAIABJREFUeF7svQecZUWZ/v+tqnPv7TA9OWfiADJkFV3MrmnXCKuuiqIgrIrZZdfwF9111VVBkSA5CfvTxYhZUXRVUJEkEoc0MDn19HS895yq+n/eOrdnBgSmc99QBcMM0ydUPVXnnKfe8LzKe++JLSIQEYgIRAQiAhGBiMBuCKhIEOJ6iAhEBCICEYGIQETg8QhEghDXREQgIhARiAhEBCICf4NAJAhxUUQEIgIRgYhARCAiEAlCXAMRgYhARCAiEBGICOwZgWhB2DNG8YiIQEQgIhARiAg0HQKRIDTdlMcBRwQiAhGBiEBEYM8IRIKwZ4ziERGBISDgwStQHudB7Tyj+j8hmdijUOG/yOHyH6VQKj9aDhn8pXyG8hWUy8CmuHIv2DK4AUh7odwDth9v+8H2QSp/34+yFbS3oDIgA+fyiz5h29VLtIFCK94neBJc0oZPSqhiC5gWTMs0MG2QtEPSikpaUKaE10W8nKsNXhWQkctVZWwOh/b5+GTUSEZ1+P98tB69q1ehjwqlXfh9dwSHAH48JCIQERgHBCJBGAdQ4yWbHIHw8R9sLnwQhRS48IGUXw4lH3EnBGAAsh1Q2QE9W/Lf+zsh3YKvbMYN7MCXe1CuJxyPK6Nc/uGVj793HlUoAjpwAaU8SssHdvDj+9QyJ/nnXLqV900u64XkOIuWXkvn5d/MBRKAMjjTig8koS380q3T8KXpUJqBL82GlrmolplQmIoqTgkkAq3xKsErXf38CwYF/G4cIZCI8Gu3v2zypRSHHxGYTAQiQZhM9OO9GwSBwY+wCt9/Fz7+snvP8FkPqtIF/dvw5a24vs2oynZ0eTO+fzukPXj5Zfswco6Xj36W77iVBjEAhA119aNZvZWvfrjzY1z46AZeIJ9Y2YTnf9r1l3uyIMiO3guNqVo5VPVzLaRBbq+qrEe6FawA4Q/5PcK/KtzLehWIgK5aGHSpA1XswBen41pno+RXcTaqNBPfMhcKbfhCK5gELecFNpJbE2KLCEQEJheBSBAmF/949xpEIHwQBz+xstsPH8JBs/cT7XMdWDHxb8cPbMVtvQ/fuwa6V8PAFlTai0/78Gk5XMdUP4AufITzD3P4lssGveqKCB9+IQHirxh0Wew8z2GxKCfbfR2uF6wUwbcx+IHdfRRPBrLYD3ZzbyiPHvSISJ92+1Dn1x4ExuV7fbFYCCGQq4SuVO8ZupHjJM1UHQ65a0XGlaCUgWIJWmbh2udB20JUx36YqYuhdQ4UO1BiecipUk5Swp2qrpzHOnGERwWCFGlFDT5QsUt1i0AkCHU7dbHjY42AFzKAfPzyT5sSs738n4LMKYz3GF/B2Qqu3I3pX4PvfoRsxxp8zzpMz2rUwObwkc3t8vnvfnBrHz9fu01Z1d0yaOkI1guFS0pkZhpuxt4kHUtJpi7HtS7Et85DF9vQSQkrropAPHaRoRDvgEEHS0ukCWP9bMTrNScCkSA057zHUT8BArKTz4PrcoogO3Od9uIGtuB61qJ6N+K3Pxz+TGU9SdYPlT6cxAbI7jt8sjSysY9tZAhUbSool4KWmIUi3rRAcSp2ykLMlAXoqQdC+0JoFxdFBxRacF5iPCDRu0cwxGDHkc1CPCsikCMQCUJcCRGB3RFwFfzAenzPGvyWVbiu+3FdD2L6N6F9BXwWyEDmp+J1BiZDqVIIuMOlKAnuexxBCDEEse0BAbEB+BxHJPRCsiJCaCfKehIrWRbicsnwups0acO1LiLpWIKZdThq1v64KUvQyfTcfRFbRCAiMGoEIkEYNYTxArWGgHjolc+j5WU3r6sFS3P7QB7hH34mH/usFxUyCNbht63Cdz8APQ/gezei0j6UkhgE+ViVwrk2jxrAIFH+OtwHZasZAPmONY8j2NUiQRj6CpGYhoCnhCuElIoQIVlNH60GajgV5lTImBA2bwxZMg0jBGHm/vipS2HqPqjWOfhiB9q0oJS4i3ati3wd5O6jcM9qHMXQexqPjAg0PgKRIDT+HDfdCMVJkKcSSkR9nsInO1KlrOxHMZVu6HoQ23kfvvOv0L0WM7Al1xMIkXfiDZckv1gJvW4WTyCBeRCjTVrwZgq6NA1mrMBPW4GZeRCuYz7KtFejS/J00zxcQUheThpjiwhEBHYhEAlCXA0Nh4DoDQRztco/8s47knQHdD6M2vg7sq33QNd9GNeDUsWw+6/4oqTqV20LEoY/KNjTcPA09oCUIguWBZ9nd9iMVGt0YTp0LEcvfCZ64bPwrQtxuhisQFqsRAGVqL/Q2Isjjm64CESCMFzE4vE1gUDuLJBdoLzU8xS83GwsvgMLtgd61mM774ftd6O77sP1rsWXu9FaSEOCdwlJImZms5swkETIy/XkIxP3lDUx2XvoxKBLR2wIOa3L1Rtzo4IVbadqKqlYkArQMhU9ZSnMPAA165DwZ9U6D0yxajOqrq3dFB3DpfYkK1EPYMU+RgSGgUAkCMMAKx462QjsEusJasLGhRgDCW9TIrIj0sN96/Cb7iLddjtm253oge14n6KCepBsKXNCsUvaaHBMf/s3kz3aeP/RIjConiDXyWMOdko+h7gGMRkVsFOW4GbsS3H2oSABj6U52Kq2hBZXlbMhVVUkqHPyMdp+xfMjAvWBQCQI9TFPsZc7ERDngcsDDCmisgoMbMPvuIts7R/Qm+9A9T8qGXJ4Cjir0SaajuMCeiwCuTaVx0jtBwl0TMW60I6bsRQz72DUvGOCS8KXZgSZaNG20E5yKkTQKq6nuJ6aA4FIEJpjnhtolD5IEWe969Cd9+K23IrvvAfTsw6ygTzaPSkFW/Ou1/hO7eEGwiEOZXQI5NYo5yV4NYQ25kqNPsM5A6UO/NS9MXMOhpkHoqbvh2qZE1wVuRhTbBGBxkcgEoTGn+P6GeFgHYOQdWbQUoxIivxIfQJ5edsKbL8LtfYPuM1/xPVtRGeVcEzuM5BUNjBa4geqTuPgVog24fpZBBPV08GIFclgCAsvFJIKhaokwDEEtdiwdKxpR3UsRS94Nn7+s0HUHZXBVIteDFarFIohuRBxtU3UHMb7jDcCkSCMN8Lx+kNHICgZyidezL6eTGl0Vkb1bsFvvR234Q9k2+6hlG0JSgQ7CxgN/Q7xyIjA8BEIdakqoQiVLS0gmXcYav5ROEmdLExHm1KulyFCWaoUCenwEY5n1CgCkSDU6MQ0Zbd8CDfES3yBiBdtuw274XbYdBuqvB4t1Q6DuI0Ei0mLOgVNuU4meNC5JkY1I0LiX6SudmEGesYy7JzDUXOPRE9dhtNTMaKhEU0IEzxD8XbjhUAkCOOFbLzusBEIL+G0B7fmOvzqn2C33UdBu6DHn7ksjynQhepOLersDxvgeMLIEMgTIHaqZVqb1+kQ4a3MO7Segpp3FHqfV6BnHxnWaN6GUlFzZF2KZ0UEJgKBSBAmAuV4j50ISJBXSBuTeAEtvytUVkbveJhsw42w+QbU9rVAP9oXcimCwXLL4oLYWYU4btPispo4BIJVILjApFU1FkIxycGqlApMCWY9DbfguTDncGiZgSm0VrU6ROZZ/ih1Iizai4ssruGJm8F4p5EgEAnCSFCL54wYgVzlUHQLFLrSje+8i2zdT1Ab70ENdKLoB18Ilfm0BB/GFhGoJwRCHmSCm74QP/NIkkXPxc9cARRy2SUhBYHlRmnneprWZu1rJAjNOvOTNO6gX1DpRm38KwOPfI/CllvQqcFqjxd3gi2iyDBGXqJxhzVJ0xRvO0IErAZjM4w3eKdIW6fiFjyHwl4vQU/dG6tbQ40QIyRB/BSxRQRqGIFIEGp4cuq1a2IlwIrEraSNSYpiEuIG6N8IG27Gbfg//NY7UOkAShfxkpboJN1MEhUlZVFEa6q7rXoFIfa7KRGQT74N7gObKzcGRSaHL81Cz3sGLDwaZh0CSccuPYVAhPPCYrlsdF5HJLaIwGQjEAnCZM9AA97fi39ADZBRwMhbb2Aj9pFf4x79BbrnEfTOeshxB9WA0x+H9IQISNSNJUumo2Y+DTX/aFj8fFShhPIS1Cg+NSHWVS2PqNYY11ENIBAJQg1MQqN1IQ0SdRbTvxm38Te4VT+F7gdJEgnuisFZjTbfcTxDQUCqTIprQYJvRXyphJt7OGbZsei5B0PSFiSdRcmRkMYbyfNQUI3HjC8CkSCML74Ne/W8mmIooRhKI/tQVVFMpBmuZw1uw+/xa3+L63oQbctBv94rSVGUKksNC0scWETgyRHQJqiCii8hZDT4ClmhjWT24ajFz0PPPQpXnBaeq1zOefBB2V3vIz48cYlNHAKRIEwc1g11p8w5jGQjyPvO5Jr2utJJKm6Eh34AfRvIS9s8/oUWc8MbaiHEwYwSgWripEpIxfWwz2swcw5HF6aCq4hwOErvThTkzzE+YZSgx9OHiEAkCEMEKh72WAS8dVgt6vMOPdCF23gT2UM/QG2/W0SQg5k0tohARGBoCAQK4B2pascsOAK97JUw4wAolNDyLA0GLUZ+PTRA41FjgkAkCGMCY/NdJJPqdwOd+PV/pLLmFxS33YN2vTjdEvK8g4BMbBGBiMAQEUjQXtxvjkxifIvTcPOOwCx5GXrOYShRZxx8pKKXYYiYxsNGi0AkCKNFsIHPF9XDQS0CSdeSlMUUHSRf1KZbqDz0Lfya31FUCmdKoUaCdv15vYTcjhBbRCAiMAQEQsFp4QfiPTBS/UHjK3mMglpxLMXl/4BrmU9IGg6pkwan84qUMaBxCADHQ0aEQCQII4KtOU7KCUJu+pR/vLOozlW4Nb/Er/01JtueBycqgwqlb6P9szlWRhzlxCHgw3OXTtsbs/ffY+Y8D1rnIkohiVQ7VYUY9Dtxk9F0d4oEoemmfOgDdiHjoBp53b8B//BPcGuvI+nbiM0sOkmCzrx1FYyJMQdDRzYeGREYBgISCZxqfKFE2rGAZO/XoBf9PT4pBTtdkG+OLSIwDghEgjAOoDbKJUNpGlvGb/wd7r5vojtXgS9hVRmNwUtCt1do5/CxbkKjTHscR40hEAqcqSLWVzDKk/kiev6RmIPehOpYkccnxBYRGAcEIkEYB1Dr6pKhjK2UVJY/GKSUkjRvK7DtHvwjP8Ct/T2JLQcHqRcJWclrlGNUVQuhrgYcOxsRqDMEBrVGpMCTpBN7K5qMqNYF+KUvRi19Cap1cch+lBCGIHWugppCLGdSZ1Nda92NBKHWZmSC+yMvE3mVKCX2Ao91HjPQi33km/DQz1D9G/Fe4U0hZl9P8NzE20UEnhwBESkLpSPJ2hdg9n8dLH4pOpHy0haxOkh6ZHQ/xDU0GgQiQRgNeg1wruxFJGI6KLulA7htN1O+/zKKa1dBUkAVJL1K4dzAruIyDTDuOISIQL0isHvWgrcZKimQqVbM0qej9/5nXPtS0CYQeqViNlG9znMt9DsShFqYhQnsQ3AhiNRrqB4nuQmgncd33U+25meoR36FGuhCJUECSZKtQnnaPAU7ahtM4FSN2a0GQ9gy4NFNKUvmFEmMRMeP2S3ihSYUgd2CEkP6sTzNMrsK2hfCsn9ELX0xlOYEPRL5JaWiYizjhE5SQ9wsEoSGmMahDyJ3T2Y4KjhfIrGQrf8R2T3fptj9qCQlPIE88tCvH4+sMQRkvqUIkLY83On52o+28a+vmsmsFoc1ssuMEfA1NmMj7o64AgMZkEqQsw/H7P9G3MxDcU6TmBQlKZFxvkeMbzOeGAlCk826WBCsfDRciu96iOzBb6PX3YCpdIEuwk7d9yYDplGHK6W3kwJeW775u26++sNOzjtlLofNb8EXxTrUqANvvnFJUGLQLvGV8Binpbno/Y5DLXkxvjSDJLobmm9RjHLEkSCMEsB6Oz2kLqY9QezIPnAtasfDKOPDLsM7T2LijrLe5vSp+mutReuEnhQ+eMkGblhV5sOvnco7n7sYR9fOjJRGGnPTjiWQA4/WBSS2yIb0Y0My51D0/m9Azzocr0UHNW+7ZM2iwFnTrpk9DDwShCZYGV5KMGPxFDG96/B3Xk629rpQjTFYDbABhbADiXEGDbUi5Juhlee2tSknnbuFHWnK81a0cdF7ZkGfwZtoQmioCR/88lcTloXvhxLTxemwz3Gw/z8F8bP8MIXx8sznJDK2iMDjEYgEoWHXxK4Xf+ZTdDqA33AT7qFr0NvuDuGHQg6cl+Cm2BoWgRCT6rn8/7r54g960doxvWS59P2LOWA2IRA1tiZAQOTSdQk/9yjMvseiZh4UYlMkYFmsDDEWpQnWwAiGGAnCCECrj1N2EQTbvYbKg99Er/kViWgcmGJwJ4ghMiog1sdsjrSXWim6MsuHL9vCDfdnuKwSYlA+9PKFvOulBZyNLqWRYltP50kAowidKVXBtSzB7Ps61OIX4YpTUF4sCFGNsZ7mc6L6GgnCRCE9rvd5fB1YhwsRzRbVs47yX76M2XQbRksylOwaJL9NtpYmxiSO67xM9sVzp9G9Wy0nfnUjnf02VAzMUKycrbnsQwuYWsoD22IK3GTP1Xjf34d59k5jdP5ntfxVqBXH4dsWBkElFdwN+T86lJWMrdkRiAShAVZAUEDEYazEFCicPNzlTvyjv0HffzW+f+tOv2MDDDcOYRgIaOO5+DfdfOXabrxzKOWwUoDL9vO1k5fy/BVFLCKGVUbHKPdhIFvfh0r1VaU0dtahqH1eiZr7bKwRx6OIpml0zGaq7wkeo95HgjBGQE72ZeTlH+opiBmxdx32zitg/S9RzuKlHPNkdzDef8IREPnsAVXgbV9+mNsfgaKRUFWxGDgGUsMpL2rnQ//QEXzRUncryvJO+BRN2g2tkABXCUTAFqeh9n4Vaq/X4VpmkFTJw6R1Lt64ZhCIBKFmpmIkHcmrKUoyu6S748qojTeR3n0Fuus+SAy4Eop0JBeP59QzAvLBN3DbasvbztlIxVWCbn+uhGUxRvO0hSW+8s45zGnJTcrRzVDPEz68vkt2y2Ceo1aO1FuSxa9AH/BGfPvinVkNMQFyeLg22tGRINTpjDpJUhKxI2+wYg6sbEet+QX6wR/iux8O+c6evPJbbj6INoQ6nephdlv8y0IWFc54zvhBFxf9agctCVghk7JuVF71r6PVcMYJ83j2PpIKF9Pchgl0nR+er5M8k0ESHjVOCrZN2Re9/+vRC8TlIJsLIY+5NHtszYdAJAj1OucOKmQ4pSj0bEDdezGVtX8gcb04n4SAxNiaEQGPmI8TZdnco3jHeWu4f7NGuXI1nW0w+CwXxzrlJVP50D9Ow5VFVCeumWZcMWHMod6Kw7iUrDADfdDxuH1eQxJqOISyT00LTTMPPBKEOp190TbwzmK23Ie973LYcmvwI4emRQglCuDU6dSOstsSspqg7A5+93AbH7l8HT0VnyeteHnZ56JY0sSisHJJwqXvWcjURMJc40dglODX8emBHoSsJk8Z61ooLH0Bdr83kHQsr5KEOh5e7PqIEIgEYUSwTcZJuYyqMHmpwiilmf2a68lWXU3SuyGYCsXd4J0UZak6oCejm/Gek4xAXrkPnXLWj8tccl2nFN7ASaCqc4/ZCEqya1HDuSfN5ZgVpVjdcZJnbjJvL+4F44QgirVAHJhVi9LMwzAHnYCfdQh4G1wRuxaRuKsiqZzMeRvve0eCMN4Ij+H1vU+DvkEQR131Tbj3/2FsN14VqxLJMaRoDOGuz0sJjySlott5x1kPc8sjDvMkFZmEL2Re8YZntvDp188m2J3i+74+5328eu09tnUR5uknw4xn5/ErPrc2VTJPqVCIJGG8sK+B60aCUAOTMNQuZC5D967DrfpfePQ6tBvAqQJSa0ECiaKfcKhINvBxQiB1xp/WFHn3OavoTUtB++CJmqyYzCcs6BjgsvcuY/kssUI1MDZxaCNAQBhnhi3MQq/4J1j6D+hiByK5JkHQKqZQjwDT+jklEoT6mSvc9nvJ7rgAvfUmVJbgTIII4YQa8E/8Daij0cWujhkCRvFf12zl678fING7Yg4ef/08QzbDmnbOeH0HrziiLcaujNkkNMqF8vJtYoRypgW19KWYA94EpVnBahkJQqPM8xOPIxKEmprf3ZKTvcIF/QLxHVfwnffhbj0T1fMg0IJTYuRzoVKfF99h9AXW1ExOZGce4wf2ng0Djjd/7hEe7TOikfikTVabKOdVsozXPWsKpx83mxaRzpCSwbsVA57IscR71SICufyycganyqiFL8QccCJ26kKMk3iXPA0yJwzRR1WLMzjSPkWCMFLkxuW8xxEEJ49cH3bt7zF/vRDKW6Jk8rjg3jgXlRf0D27dwUcu6yQp5TnuT9Z2xht4z37zE849ZSmLO8o4l+SBrrFFBB6HgBLdFV/BzjuUwoEno2eswCtRZdS5hzPyg4ZaM5Eg1Np07qy75EldBvdfDfd8G083xuV13GOLCOyOwO67tn7r+dT/buKaP/UzxSShRseTNdFBQFmct0xpKXD6Gxfx6sMdtmzQyVNyizgBTYpAphxJsGoqsrZ29CEfRs87GusUBWOiJbPB1kUkCDUyocE8F8RKJMFIodMu3H1Xk676HgXSaj2FuKurkemqrW5Uzbqyeh7eZnnX17bwUHeFQsUHlc0n29QNGglkzaVe8ZojpvD5t03HZwaNxC7E7WBtTXQN9EZJqqMU+MowmSNrm4c++BRY9CyUKuWS3eKeCoELcf3UwIyNqguRIIwKvtGfHOROvcepLMQSiLnOD2yCe69APfprlK3E9/ToYW7oKwTZba8wxvPjv5T5+NUbKFuR2nYhuGwoTWp5SE2GK09bxPJpSbAq5DnvsUUE/haBsKGR9aEstjQX9n4NZvnL8HpGEOOS2CglZqjY6hqBSBAmefpyy4G84nWuZNe/huymL2O23owK0rfxJT3JU1T7t5f14xy6pZXTv7mVa27cgfUpRidDJgiy/tJyH59682Le8nftuCymxdT+xE9+DyWg1VCmwjQK+x+L2v+NpLo9VA6NBHPy52e0PYgEYbQIjvJ82eWF3ZpKUJ13U/nrxegtt2Ao4shiVPAo8W2G053zSM2dLQOat5y5jkc6M3yWkehiUN0ciqdALBAVLM9fMYUvnTCNjqQYFBhjiwg8FQJONjBZSmIMqWpF7/Ny9P5vhOLMINs8pMUXIa5ZBCJBmOip8Z7MOYy80UPEQf4Pnatwd5yD2nZPVQ9dXs6xpsJET0893k9WinzPr70p5bQr1qBMsjOgfIgehty9lVSY29bCOafMYeW8hMA6qs1HBaV6XBoT02dxkyoVZN6tLqIWPR990AmY9nn4kBGTKy9KfEJs9YVAJAgTPF/i67WZI0nEP6yw4qvbsor+2z5JsWczWonfbqiv9QnufLxdTSIgG7V+Z/jARav51T1QTEawfpxHJRZcG6e9upW3Pnf6Y9IYIkGoyamvsU4pvLehKJid/1xajvwQrtQa1pF2hXy/E1tdIRAJwgRPV650UFW38w618WbSu8+nsOlhXGnQYhCjfyd4Wur6diKlfNfGhLd+eRU9aelJay889SBzIZyKhpet1HzhrYtEjitS1bpeGRPcebEySSVZl2GVgflHUzjgLfhp+0vlBpRqmeAOxduNFoFIEEaL4BDOH9x9iRlOXrnei+fO4zfcgP3LRZi+dShtcD6LPrsh4BkPeSwCYr79fzfs4FPf2k6rkWDX4ccOBNlla8hMhYVTWrj81Lksn61DcTChq9GCEFfdUBDwUpvBSgaDxVlHef6RtK48Bd+xT6gXo7xkPoS8m/BPbLWNQCQIEzA/1uU7sUQSz5QPUrZ+/R/gL2ej+zeAfipB3AnoYLxFXSEQXqy7vVt3lC0f/Z8urr9nG8oWRz6WasGv1Do+edxMjj+mI1TsK5hY62PkoDbvmWJQkM2QmnME6ogP4NsWo3yKFj9rUowEoQ6WRiQIEzBJQds+KNbliuVuww1kd1xM0rsarwq5sEhsEYERICBhX3dvynj3hRvZsENjpCT4SHdmVdEE6+CZ+2jOPWUfWukL+exi+4oR6SOYoGY+JRQDy8Xf7MyVJCv/hXTa3ogMVyJkVNwQsdU0ApEgTMD05CoHFklHY8MN+L+eB30bgua9DrlAkSBMwDQ0zC12tyDI+rnqd9v53A92oFIpwjtierBT+U52fkZZLn7PfJ6xrAVrM4zI6MYWERgyAnl2lpZy9MrhbBk960j0oe8lm7Y3BSk/GwnCkNGcrAMjQRgX5HM3gvjc5GWbe4Qtar1YDi7E9D6KM0W0mN8k6jc+KOMyC416UdmTWdmHiS9XG9557np+d38aBHCt+HlHOvDdpHGlwuP7Xj6dd794hlyVQtX9MNJLx/OaD4FcBI68mBMqpHerBYdgDjoVOvYK70dRYhSppVGs2uYDdgJHHAnCOIGdPxxiNVBIXI5ffyPujoswA6vBx93YOMHeJJf1ZN5QMI57Nire8dWH2N6vq9L3I6YHj8FO8myOXFbgy2+bz6x2h95NE6FJQI7DHFMERCxBS443zDkStfKdMG3/YDs18t+4SRpTtMfqYpEgjBWSj7+Oz8i8Ds+E2nAD5ZvOolR5lMxMxQymOY7XveN1GxoB5yRPQQgCnPXzHs778QaSZPdA19GTBJMktCZlvvqOJTxrH4f1xVjesaFX1fgOLpQPlxgsrbCuQjrrWbQcfgpuyt7B/aqiSML4TsAIrx4JwgiB+9vT8gdA7LuSEibRuyHlZ+PvscGtsAbrRZ08i2x5zDBvzgt5n+F9gc7Ucer5a7lltWQajC0WEhrjvObdL5nCe18xHZvGOJmxRbi5rpYXd5LXo8YF12uGnX8MpYNPwrcvqaos5keNnt42F7bjOdpIEMYIXdnT6ZDja7FCEIQTd91HdvOZqB0PVGsqyNKP0eBjBHnTXibzGQVf4IbVZd5/0SZ60/zlO5YteIa94vC9Wrj8vXMohAq+1buE9R1bRGCkCMguShQXE9IFz6B4yLtQ7YtCpoxkeuUlo2OI6x4oAAAgAElEQVSrBQQiQRijWQjlz5HXqrBjBTsepHLjp0h670fpdsn3GaM7xctEBDzOwrnXdXPedTswuZLRmMISXtYYWk2Fy96/D4cu1jhbVQAd0zvFizUlApLEoD2ZSM0vfXlIgbTB/ep220w1JTI1NehIEMZoOqTcrix4bzWuZzXurvNg/Q0Q5EWlPnosVDJGUDf9ZaReR2e5n/ddvJ0/rR4gceORKBvizqk4zdufN52Pvnp61fqVk5GxpSNNP6VNB4BSOvfIekeqWjB7vRyz35uhOD0Ptt0to6bpwKmhAUeCMEaT4W1GZhRJ9zayu85EbfhzEECS4iWxLvoYgVyHl5Fy3rnrSYIIK9UP6/ANqLtrH8iH+5YNRd5z9mo6K3nRr+FfcU9gGhA/MZp5HY5rPryMeVMdqTUkITVt+HeU1F8ktTdY20QdJAnMRgLYZCeZxEj2PU1KY/3ciySzwbkyVkpF7/tazP5vwBenYSQ9PLgbHqsa2lgA1P5oIkEYoznKRPdgYAvpHV9Dr/l1VQBpjC4eL1O3CMhLTrK8RSwm80WMSkeknCl1PAabFPw860ednPfT7STJrnoJ4wFSKC7mHF9+22xevrJI2Zco6OHXepC+5TG88p8kuOGU68uj16XAj2g6jOyy4zHseM0JREC8r1pbKno6rHgThf1eBy6YFyCoeMY2WQhEgjBGyKfpdrjzm/DoVZhU1MMi8x0jaOv6Ms5l7KgY2ltVEDIKWd8jtM+HF6WCznILJ519D39dX6Dg01xoaxzfopl1vPHvpvHR106joMX1MBL7gXgmFNqIBcHTl3p6ykVmt0r/xZKQoqIFoa7X+kg7L6tJUndFvdO3zEOvfDcsODqsa6OTKPE9UmDH4LxIEEYJYh6cCNm9V8N9l0BWxNGPCS+7cXxrj7Lf8fSJQaCC5ovf3UBv2sorj2jhiOUF2ooiDSPysxKplbsH8vp2gy2P4t7d0z9oQZBQluvv7Oc9F63D6hJaXFiyAx/H7bco3e0/F85/9wLmtMme3+cE+HFN/kpIwGBKW/hx2B2KKVlTwdHZAzfck/Hjm7t4zoEl3vycWThXQaIutYwjtiZEILcUpM7lJFq1o47+OGruM/FOoUIUbmyTgUAkCCNF3UnoYSXk87L65/i7LkZnvVVdMNklxUU9Umgb6TxvDJddv4Uvfb+PRFdYNqeNp+9f4tn7ldhvQYE5HYaSdiiTkEgMt0rxXtwGeWBrWEeSEoYGY8iylM9+bzv/89seCskErTHlaU3gi++Yywv3KWBVQighEpq4T3RwQwTtD5CeSlexTtFV9mzcnnHXoym/v7efPz/Qw/pOz/Q2zbc/uIhFc4uQldFCO2IcbyMt/eGNJZDLfEulMk82aynJoadhZ+yHEcE50U6QtRUlv4eH6yiPjgRhhACKsdhL8aX11+P+8jVM/xbZKo3wavG0RkVAgvH+sg7ec8FDbOhpCR9W5TytJZg/I2HF/AJP37fAEfu2sff8IiWVQZaH8IkLVpkS3leCaJH2KY90Fzj1god5YJMJwX0T1TLneevzO/jEq+fgbPqYKPM8GFdIjiiHarb1au5ZX+HW+7dz24OwamOZzb0ZaUVojsfpIn+/ssDZJ83DpU7CD9Dqia0SEzW+eJ/aQcCRorIi6cIDaFn5UdyUhSGFPCcH0co0kTMVCcII0Q5yRzvupfyH/6bQ/1DIVBipb3mEXYin1QECwiEHMs2/fX0dP/uLo6XYh1EFrPNkWpGKK6rsmGISDlvieMWzF3DM0xIWzpIPZ0Klrx+tpDBTEaUq/PzuCv/29a1UJlDZUKwYmYK9ZiiufP985k6ROIrcCRIsCUbRn7Vx97o+bry7k+tu3c5dayuUmUGS9JK4AoWw/5P8i1500sLpx83idUe25ATIVUKcoqQIxxYREKubTytoVcHPeSHm6R/CFmaQKCGmkg00QZazOBVEgjCMRZD7VoNmIqprNekdZ6M2/AGlWpG8nLhshwFmsxyaaxbz3Vv6+eT/bMaGj73suCVI24dsl0xiEHyGc5oEx9yOhIOWtfP0/VtYuVizfFaRGW0KVXT893e2c+VvKxgqE/qiDGs+c5xx4mxecWg7fRls6XY8sG6Amx8oc/tD3dyz3rF9IA9hTCTl12XBNSLmYatssILIT5fMKHHuSbPZb664UqrZDSHdMT5BzfJYPNU4vfWoog7ly53OUPseh9r/rfikPbfARU2ZCVsmkSAMA2opsptJYtbAZtxfLsCs/zXeupArHooyRYowDDSb49BQlwNPZ0Xz1q+s4cFNYPRTuwYGS4TLcbPaHItmt3H43kVW7juD865dz6oNFcwEf0zFYiaVSZ9zQJGXHjmVW1d1cecay/rOIt0DfVU9gz185JWnnMGrDm3j02+ZyRRxyUVO0BwPwihG6Uwr+qC3w/LXhIBFKR4d28QgEAnCMHCWGgtCB9zdX0ffc3WoQmaSIs5JEFmssTAMKJvm0My5YD5PikU+8787uPr/NuVZB3tog2pyzidhF+5shpEg2KQFJCtgAr+sQmecdxgRtbEi/ORJXQsUMgwD4BJMIoGKHufEKvLEL3AJ3XUVx+ePn8Vrnz4lFDWLLSLw1AiIYpIjNVMoPON9qPkvjqq0E7hkIkF4CrAHUxhzIVsVfKX+0Z+R3XkpZmBHCNeu1meq1lqI26EJXLt1cSsvud1BIKnCjQ8qPnTpOroGconZp5KTDZ9OUZoLpneR8U6wTnbcYux/bArkeAMh33FxhWAlwFCyFlKMF+2CnBSHvgazr7hO/JO6CkRMbHFHC1d8eBYLp+QkKT4x4z179X99yYYxvkw2bR+KR3wYNePgwcK5cQWN8/RGgrAHgiAvwcGXnt30Z/jzf6Kz/rBTCnnfsUDpOC/R+r987lv3bOmD91+8npseVRRsH14X96CqmJ9Xay2ny8PvW+o0b3uW4WNvWARZpUoqIkWotfmttf5Ut2d5Au28p6MP/zC2NCMolMZ4hPGdrUgQngrf4FLwWKVIeh7G3fxV2HQjrtARqo7V3qt7fBdLvProEMi84tyfb+Kcn1VoEbH5CbYEjK73oztbrBDtLZbz/mV/nrGkksftjKO40+h6G8+uVQREIyTb90UUV5yKS9pIYmr5uE5VJAh7gDcT82plK/7Or+Ef/Q1aBGG07J/EshB3P+O6Ohvk4jvjBZTn9/dXOPWiTVQyURcc8yrNNYuYEIRn7lvgvHcto9X1YZ1BB5IUn6GanbQa7JgEijtTQh9wAmrvV2NMWw32snG6FAnC38xligSGiSiHJDQiVRpXfQN712UUxAVsJWNBSIIkbkcbQuM8ChMzkh6bcPJZD3HrOoWZQKGjiRnd394lpwAV8O2c+rIpvOtl7eBMSP2Mgb2TNSv1e1/rIXGWtHU6yWEfQS88ZpfSqBInRCScYzm7kSA8Dk3JSAj6+JKe5i12w43428/BlDeG8rQxV3ssl1+zXUuhi57Lf97H5364mUSL4FCDk0yv8TplZovhy++YyzP2atnpmmv4sTfb8p6I8TqHVZB4j515CMnT/w3buhCt8kJoudpibGOFQCQIj0My15MX24HBdD9C+ab/oLjjQZxqRalyLcaMjdVaiNcZdwRyt8KjXS287cx7WNct2Q2NXeNYkh8G0gLP3a+fL71jb6a3NDghGvc11Nw3kJwZqQUSMmi0Q89/Hqx8D1lxKiVVzAuBxDZmCESCsBuUeb53np2gsk4qt55N4ZFf45I8JUs7UX2LL7gxW31NdqGwdizoVstpl/Zy7c1dmIauVCcpkY7KAHziDbN4+3M6HmMxiRaEJnsAxmC4FkXRWDJnUF5jbT/q4Hdg9n1zEFFSiBRzbGOFQCQIj0PSOotzZfSqb+HvvQwlgYgSKeueOm99rCYkXmf0CORlkqWYkZgdQy5qzTSJwjbFlGtvqnD6/26lXMlQUpuBrCEV4iTId06r5coPLmXvWTVcr8RLzJENHx3ZoAbds9hqDoFdKY+qGgJm8S3zMEe8Hz/vaFG8zxPPo6thTOYuEoTHWRBS70nW30jlts9SKpdxDW4CHpNVVHMX8WROkUgsiWSb1NDLQnmDzXpZ3VPi/Zes5f6NKkgvS937YDZtMBdqah2vfeYUPvvPczCSAVRzayXvUAiYlPLa1oaKlLGySo1O1O7v691EuezMwyge8X5s+5JQEkzFeLExmcBIEB4Hoy9vIvvj59DbbgI1FXx5TICOF5k4BCo2oWRSQjSTJJtM3K33fCexSKmMslX817e38L83pCRFUVsUIeI9SzDv+Qa1c4R8ZFuM5YvvWMKLD4QsNeg91KGYrN5bU6CvN6OjtVo9qrZWzWTBUtv3lamSdNmCw6UV1N6vgoPfiSpMqSqQNtbzNBmT0fQEYbAIrejdk/Zh//o1eORHoR65M2lDmn0nY6FN1D3Fp//dP3axbOEUDl+UYH0aVP+C7l/QxZ6onjzZfRTWW7Qx/PyOfj58wUZcQUyiDVLNULJ/ZCderU1ywKKEc09eyPwpNtc+qJkPr/gQCkE+OjUZ3/uTZFr08YJD5mB0lqtIx1bjCMjbWwcLobIZVrWRHP5O3NJ/CBVTpUR6bKNDoOkJgjiynEvz4MPVP8XffvbOl9vooI1nTxQC4ZtfdSNIuMjVvy/znd+t5/Nv35d951ewqQQ05UbjWgkyle5u6Xe89cwNrNqSUtASM1H/Bb9CGWup1+BTjCnwz8+eyr++qhXti+GlXTtN4oosvs3xnd+lnP+DrXzx5Jkctqg9r6sidagnnUzWDlr10BOlPFnbXphn/DtM3SekPE5kUbN6wGi4fWx6giBaB6mkNO64B276PHSvrmrEDxfKeHwtICBpdX9+qMzJF3Wz1/QePnn8UlYuzLMHpMyR/LxW3vzaaM76SRdn/7iTUiEPrqr3Jrs57R1OJWhvOffE+TzvaYosMxgBv1Y4gvdkBcd1f7H851WbmT9LceWHltKmRNQpyTcJ9T8d9b6chtF/McGJW7GAX/J3sPI0TEt7nMJhIPhEhzY1QZA0K/H84nrxt34FHv1lHqhUM2+xUc5uk5y+uwVBhrxme4X3XdrJ3et6OWxxCx97/QJWLsi1LXavohh2u5P4EZCyyXdt87zz7PV09ld3rXU+Z0HpzkMZzUEL4IJ/WczsKQ6jBHspiz6JgMtzLVkKknrp4Qc3D/DF721ha7/jhOd28InjZuIq4JQXyZ1QiC22+kEgSN8rjxPLwYEnUtjnOLwpVN/nk7nu6gfDx/e0SQmCvIzFDJqRSSGmB76B/eslKJFPDumM9TuhsedQtnD6NVv41i0eU+lj/0UJZ71zL/adWRarcsjFlz2iNZNbDMFloEqW9168nV/9tR8tQht1vvikTol2nv4KfODFbZz6mtl4O7m0YPCZcNqj0iJJezfX3qT4r29uZXu5n4QS55w4i+cf1Boe/9jqF4G8ui5QmoE66uPYOYeTuEqonBplmIc/r01JEGQReStKXAq19S+kN59J0r8axyDbHD6Q8YzaQUBeEZf/dgefuWY7rSVNZuGgRZ7T3zifQ5eY8MHCF0L0c/jzpDXxkPZz9Q2Kz39/E05SHet81yopZtYX6ChlXPH+vThovquOa9JArt7Yo3yBStLPdbcZPv+t9Wzd4aHFMa9Vc8G7FrD/XBNCD2JrDAT8/GehD/sIlKZWXYtRZnG4M9ucBMGLLA3ochfu9rNJ1v86iG6Iu+Hx5urhAhqPrwUEPLc+mvG2r24QQ1HQGLAUOHxpyidev5CDF1qsTfIMlUkMnAuCLi7lnk2ad1+0gQ1drsYC+YY/l2IEqaD5+5UlvnLCHJJQFn3yTXLSgwoZ3/tjyle+tYUtPqOoDNbA0Uvb+MqJs5hamvx+Dh/xeMYTI+DxuoA++ET88tegdbEGVmH9zVVTEoTMi21XYx79Ef7Wc7HpAErk05SLClz1t4b/tsfesq2seMMZW1jdmVJSKYXE0FN2HDBbccbJ+7BiXiaFOpHoxaC65vPIkwmNSRBNAF2gr6/MR67azvV39pNoh/Mq7HjqcTNrvMElGZ958yJee5jDZcVJI2EhwkiJ2xBU4vjF7ZbT/98GtniHGRAy4KhoOOGYafz7qztI5NjYGgSBXCQtS6Zgjv40ftZhIapEnvWwJ5jQB71+IW1KgpD6DN11H+6mz6K714DEHsTWMAhIKqOU4/7YlVv5zp+7KSaDO0NFJdMcthw+8U/zOWwxITc/JL17FbTcJ7aEt5ABKdiUcs2fy3z86o0UE4mLkFg6+b0OHeJKs2y25px3zGOvORLnM5lBvzLvmopK+fEtKWd+dzNb+iU/PieETpXxrsRn3tzBcYdPrUtC1jAP7XgMRGm07cctfCHq0PfiW2YEK4IIkkUp5qEB3pQEwQ104+78PH71jWjJPY87h6Gtlro5SvT0PT+8ZYDTrlgHWkIS81ZQ0O9bWbmgj8++bW9WzM9wZYtTUio2l82asOYkHbCA0Smbewsc96WH2dSlSLSIvhTyjIs6a2WXcNxRhv/vuHm0GpEtFvI9ObYQmc7MwLV/7Oe/v7OF7daF4NTQ5GfKMU1rLnn/QlYuSCapl3U2wXXUXXEby/vdmzZ42ilBaVE0b7SWHJUYjzCUqWwiglB9+XtHtvqncMfZYAfyoj7x1TCUtVI/x4goktas6U755y9tZGuPmJrzb791GYkqBLX2ZdP7OPPt+3LAfIvWLUHcZyJ3FqH0grynrEcXEz57bReX/2obBZUFy4KqUVnip1oI5QzOeMtMXnlUOz5TaDMJmRnV9FWnHT+5rcJnv7mNbeUULWAPmpY9IdXxkPmGi06dy4ySmVBuWD8PU332NASihxR2sRhZso69KD3rk9i25cHFoMVCF9seEWgKghD2YX4g3631bsTe9B+obfcFVT0V3tCxNRQCoaIbSOGtky7Ywi0P9Ocvf6VDlHqCDaJJmfUctVeJf33NHA5fZnDWBWIRdpdILvz4tsHKdJK/LRmXf3zI8t6L1tItX1nJqJlAY8ZoRireXvH3C6bz2ywXv28xe88R9HK1won88gahJmvoo8yPbipz1o+3saVPPhUynyYvylR1QQ+khuP/rsgnjp1VUwJao5mLeO4uBHbarcSUIKtx+fPwB30QCu2Y6FYe0lJpCoKAzwgSLd7i7rwI/8C16FjPdUgLpB4PEp2DPOjU8rnvd/L1/9sRvlU6VG7aZe6WD1vFKg6cl/KFE/fhgHken8nOQ86tTOiHTT5gXRUVshlueSRDh4T82mcIQZzGu1ARfSBVvO15HXz0tdPDbt1nGVriOiZsHDk5sK3dXHW956xrt9K/e5X23T0d0u3M8YV3zOFVh3bgRHZ5cjwh9fiI1WGfUxxz0Ie9Fbv4Hygku9yOdTiYCety0xAEMSmz7gaym/+bgu2JcQcTtsQm/kZePq5a0hgt3791gI9/YxPWm2qt+N0Jgg3BgJWswP4zB/jkm5bxjL0ynEuCZWmid/BCCc77eRfn/qIP7Sq5NaPGW+7nFZeIpqMI5757GUcttThXCF7ewR37xAzDU9GWH9/qOeOazWxKKxT8bnag3QiAyF/Ma/Ncddoilk7JkzFja2AEQoZaG27mXnD4xzHtCyaMttYzqg1LELyTqnJSJc9jJUK9fwPuti+h19+EMoUoo1rPq3ZPfXceK45Gpfjr2oxTL9zI1n6N8S4v1lT9FkgFz2B6Vi6UX37aooSPHjufp++tcGnubsiN53l2w7jGJ4S0Rs+fHko59YLN9Mruux4CqcSCQIb09ui9C1z0nsUkIX9UZG93/banKRvxz0NhpVzGud87vnFjH+f/aDtdmSfxUunviT/8mVc8Z0WJC06Zj5EKlHUYEDpizJrwxLz+VgVvpqAOeBPJ/m/JnWKSlqtDlZYmRGXPQ25MghDqhEuqmEO5jMwUUQ98F3fnBRR8msup1r71ds+zF4/YIwKbeh3v+dpmbt9YpiApdxL495hvxq7MBes1y6b186W378OhyyRrOsEFpUVxUI2/3I/ca0fqOPVrm7lpTZlCHVgQ8gkQgSd498tm8Z6/L2JtaQIzF6QAl/iPevj2TZrPXrOBfjsoIvHkWSniGjnpJVP48MtmklqLEaITvxF7fJ7q9YDgPspcyG7SLXPxz/48furyEJUiUTJSKyS2v0WgMQlCGKfHi19Rqsr1bWHgpn+nsPUhRCteKVkS8W3QDA+EVOr8z2s28I0bKhRM9pRBqWJt6nclDphd5pNvWMQz9hKNH4lWyQv8jDerDJtd47nk+m4+971OSqKJUONN4j1IisxqGeCsk5Zz5KIKThUnrNfC8/t9xg9vcUHnYPtATlb21KYUPZ87YQEv2qdApnJbUtw07Am1ev652AELeUZDlmKXPJ/kkA/jW1pIXCl+Dp5kahuSIOQbxAxxMwSlvLuuwN93DdbbIIpUW3Xp6/mhq/2+K6349s09fPSyTpIWiwo+6Sc2OwsFEBGdzHkOXpjwsWPnc9TensxKCePxVV/Ldd+kB4bVOwZ48xmb2d5bVXmsaZgdon3wghVFvvDWmUyXutWBTE1Mq3jPN37fw1k/7qavUhniTtCzdGaBr/3LbJZ3JLhCVV1vYroc7zIJCChxI2mDl1gE6/GFNtRhH8Iveh4SRyviSbE1iQUhj0ZOsVjMhjtwN38MVRExHHFLD+7KYlBSMzwQQhDu35zyxs+vowtFrsj+xHMvTgQtMtzaUE49y2cpvnDCMg5fnIUI98G1I/kNyRjbEyQg0toKyifQUuQTV6zhO7c4CkkZb0t4lQX1v1pr4npJK4pPvH4qbz1mVujnePMDaxxJpUhW7OO7f7J84btb6U4VJqRU5qGRT9Sck3gTqDjDC5/WwheOn8HUgrgnRPFRzojvhFpbX2PZn3x2xcKUhKq92fxDKRzxaVyxhJlAq9dYjmm8r9WQFgRZBM47VKUHe8c5mNU/x5nCeGMZr1+DCMiHtyc1vPPsR/nzGinQMzRTsgQkSgrkAfMcHztuPs/atxg0/Z2XXUg6WNZr7EYc4iCleBOYoucnt5f5tyu3kfoyyhZxWvJwao8gSIjGzBbLpR9YyopZSpy5AafxbNoX6FMDfOcPGef8aDPb++WlP0j8nhwjCTcVLYS+VHPKi1r44D/OQvhBoAYxx3E8p6ymrh1ElEQzizY45ATMstdFPZwnmaGGJAiyAIK5eM3/UbntCxQyCTKb2Lz2mnoimrgzshZ0UuDsH2/hvJ/uqJbd2POHViRaMweZbuPA2WU+c/wSDlkoKZC5jr9YJsalSbaE96zugfdcuIn71vdSUq24EDdTe03cLy88tIWz3zaXJFg5RLJ4fBlC5tMQU3LOtV1s95WQrTCUAAKn8qj1svWc/fZZvPzQ9l0ZLZEg1N7iGq8eKbEvK5LMUp66lNajP43uWD5ed6vr6zYkQQjFbipdVG76NMmmW0mTAoVgfoyt2RCQNDfjPNc/lPKB87dQ8XZIO3HZa0oGjNaWsi2wfLrlcycs5bClEkdY1fINYI4RURD7p3xcTYa3nm0Vz3su2ModawfCB1A+brVoAU9T+OfnT+E/jp1NxbrgwsljKcawhbGLj9hJRBE/uEVqK2ylM00ppUWcyYV199SE24mUpik4vvOhpew/T1Qz8/mLFoQ9odc4PxdLXJZZESslyQz2wNeQHPAvwbWYr4YxeqYbALIGIgjhDZu7FkQq98Efwh3nYpQKJuFgU4qt6RAQARyTKR7p95z41Q2s7ZRMhj3D8PgEOan6eNBCx7+9dj5H76ux8rVxudHfa4leGMJF93DboACppdSz4uGtlpPP38ijnVkIkJQY7FqsGZJmnucdWOLCf1kYgoJFnGqsE0JDbIjS9LmMb9/Yyzk/6qS7PLKKvanTHLIELnvvEjpMlEfa85PQqEcMPuEe37YAjjwNPXNl0NOQEuyjf5obA7cGIgjypk7JRDGvbx32xk/gu1ahTDtKCEJMa2yMFTvMUYSPC56eDD542SZ+f085L5A0zCYlmct6KsundHPGSftxyBJL1p+ikpaQMTMWLZeIVhij+cuaMu++cBObex3GelxVtGks7jOW15CN2EEL4aoPLqUtJIjYagWqsbtLMCC0eq78ZS9f/mEnFdGzCGImw2weUptx6itm896XTZeo0GFeIB7emAg43LJXkxz2vkBvxY4Qa/TkM90wBEFern4wtfG+b8C9lwSFNTFJ6jHa4TXmw9HYo5KdgJWSr1nCV36xlUuv6xmSBeFvUZHAV1HmMyyfnvGxNyzgmBVFtDPgsjFJMNidINywqp/3XbKJ7hS0RAIOMbhyomfTOs289l7+99/3Y05bsOAHq93YtNxq0uc919zYx7nXdtJT/agL7Rt2E8kG47jsPYs5YrnCW6nguGfXxLDvE0+oMwQ8vjQb88xPks04KM9QGskuos5GPZTuNg5BsBkVnZF0b8L++XTMjofx4rcML4CxMQEPBdB4TG0hIB8YkQFOyLj29pTTv7EVm4kvWzyN8tOhfSDy+PdUQh6De2HfuZrTjpvPc/crgM2wRocCS6NxBITIagumoPjRrb2c9vXNIe5eZIBr1TcqeLSYMt/4yHL2mWvQYlIYoQLkoJS1ECUZsbGaXpVx5fW9XHzdNvoyjRYspBDUEOdt99UoM71kpuE7/7qE9kTqdT55SmRtreLYm/FEIBQcU/34+S9HH/F+VKG9KsIufy8rcQRkdDw7PIHXbhiC4LwYhzR+1VX4uy6N2toTuIhq+VZCAawoqFHm3g2K489dS3+/ZCF4MicyvSMwVYtVwhlmtXRy5kkH8qx9W6hItJ4y4T5qhLKt8oEUP74paL7+2x3817e3BZeDhDsEoaYabPLydKRc8d7FHLY8oSA1UEbowd1Z68LL7l5jOnq55Oeer3xvI1m1DPdoIJCZ/vtD2znnpNn4svRbsi5Gc8V4bmMg4ERPD1tMMEedDvOfHeqziGhZswcsNg5BkCe9aw39f+/tHzgAACAASURBVPgQxZ6N6Kh70BjP7ihHEQLXhTg6R7/TvOO8NfxltUVUjMWyYEYUcZ9bpTLaWDqtm4+9fhnPW6HD7j/fPY/wqxMSFTxJqciXrt3Ehb/sCUF/IyUco4RuSKeLxaRsM85621xeemhbwDPfmY+05QXW+pznG7/r54IfbaPLO0xIQRhlU/CRf5zBiS8skVZKaD0ycjjKXsTTawwBUVfEFsF3Yhe9nOKhH4CWGcGcl1sPxmDt1diYh9qd+icI1fxlb1PSuy5DrboCpSUwMT78Q10EjXxcWB5SuUsZvFF88bubueTXfRQSsSLkaW/DbSH+OfjaIVOavWY6PnrcQp6zogWXlvN6H3JRCR3QeugpdCIBq8XFUOTf/2cD3/ljP0ZojEjEDreTE3W8hwHrOf3YGRz/nKk4a9EjcTGEKpsGLVUZleHK67s4+yddVJSl5JKgijraF3Vbq+HM42fz3AMMNjOBiIz2mhMFc7zPOCOgPdoWyEq5BLOe9xyUzt1QoRhYk7a6JgjBUyn+I0kD67yT7I+fpjCwCauKkSA06YJ+qmFro/jNXb2cfFFX2JmLDWHku/NdHxfrYPaUCp87fjnH7KNRpkjmLfJZE3nfoQQ8BbO8y1CJmL4NJ56/gT/eWx6pO3/CZl8IWDnznPKSGXzkH9qxrkQSsob23HYvn22FqIlrpuj4+q96+eoPt1Ie4ySDRTMN579rNsumt+JdGSOSu827OdzzBDXhESHeZ9Hz8U//RKj06JRYGSNBqMulEAp1CkFwKfauS9APXBOSVEQLIZdejS0isAsBWRIb+wxv/OJqNnYJr0zRWmKWR9ckzqHii+w7a4B/PXYhLzqolSyV1EdJmMqGlPa3sxSA8gz4hDee+Sir1slufHR9G/ezvSf1mmOf2cqnjp1BYpIQlTDcJkS/1zv+5ze9nP+z7fRaeZLHrgn/eMGBJT775jl0tMgrv/ruiK+JsQO5Ea7kPVmhRPKMz6Bmr8zrNkQLQp3OrLdYpdA7Hib74+no7nVhRyABaCEyNbaIwG4IyIfcGc17L9vEL2/vxaixqTwouw5J7ZOYhqUzPJ/658U8ax9drd0gMQR7/soPEgRtNFu6U153xkY277BDKl08uZMsuokFjtlfcebb5tJekNLYQ3v2dj8uVYqLf9nFhT/rYiDLMME1M7TrDGX85czxgZfN4F0vnY4Rl42r5OJpMc1xKPA1zzFikLYpzHkG+ukfRbXMiFkM9Tr71lVwXmHuvQJ379UhQEwEVHK/b72OKvZ73BCQtZLABdd38qXvb6doWnB+aObwp+qT7HW1FFXShkqmmTOlwmePX87f7ZPvVF34DuWSTU8pwuAVOlHcuz7jjV9Zx0BF3BPjhsaYXDjoTHjNYcs0Z580m9ktUnlyKBYEMd+KymVCJXF887d9fPmHW+gFCnK6E82J0T3EXsCT0AZJVcs0Xzt5Ds9/WmsgHj5Kr4/J/DfaRULtFon8kRijo07DL34+iVgRQhTQnol+o+FR1zEImewCdjxC+qd/o9TbSXghxBYReDIE5AOsPb+/v8Kpl26kXB6PGDUVBJX2mp1y2mvn8fwDO7A2xXsJdhK3g0TpP9E6rRII6d8DlpPPW1sX6h0SjinqECvmFzn3nTNYOqUVp4cQPCBxQy6h36Rc9as+LvrFNvpEFGoMH+HcKpP3b+kUz1UfWcqCDintvEtmNz4sEYHHIiArWuqJVLALX0Ry2AcwhY5qrMoYLs46gb1uCYIwPZtVsHdfgb7/SjStQdQitojAUyEgEclrtltOOX8dD22V7eXodqmPv5douYfXi57KgvZtfP6EA3j2vh5b8aEYTJAifpIWch+U47s39/HRq7ZiJE2ixpvEDqTasajDcP4ps1kxpyVYBvbcfAhIvPTnZc79wTZ6iimFbPTxILvfV+kgt0Q59bz84Ba+/M55KIkojS0i8BRPYW4rKFNJZlM8+hPo2UdWjx5c17X/XI7VBNcZQagy/+pv6Y6H8DefjtmyBVfoj+JIY7UqGvQ6IePRe/pSz0ev6uQXd/cgIXVj2cQO4CWDQVIgSVg01fLx1y8IBY2URMqFlMvc9P23EfRCESwX/3oHX/jeDgqF2n8RhcJoGma0wPnvnMthi4u4J7HkictAOQnctPRaxTV/6uOrP9hCr3W0+ALZCIIbn3Lu8sQQlLF84tglvPkYj7eFcEqs3jiWq76RrpXLfGXOkPgKbr9/whx8MgQ3w5NZ/xpp/I8dS10RhF0PtcitGir3fxtz57k4W0RLalXtv08bdyXVxchkF58EqeWv/Ww7X/5FF63jskvPjZTyqhFOsPcczYdftYAXPk1JYQis0iE2ToiE3mlTl6RdE/zl//X9Lq76VRfFOiAIYoGxKqG95PjSW2fxohVt2N2sMru7U2TvLka+nizj4uu6uPI3vZSrSR6hINMYP78S8yHpptNKmgvft4jDFohbY4xvUhfrPnZyuAgEcX7vcKWZmKM/gZ+xMgizK5U01WemrgiCyLwbLfuMXJPd/eYD6O23Y5M2tPh5m2rqhrvk4/E5AlLboMyv73W864INGBFMGkdotM4oZ+1M0118/qRlvHBFgguCSCL/nO7UYQgZFmIOt46PXL2ZX9w2QGEs8/zGa4xCBnQSnsvT3zCDfzpiGlasJE/QlFX4tjLn/riP83/Wh8ijjyf24v6w2nHgvAKXfXAJ07TIsQ/F/TFeYMXr1hsCyvXj9nodrDwVY0RfR1bseK7a2kKorgiCVHiVkCMRr3DrfoP58xfBDWB1EghDbBGBPSEQHm3lWL0d3nTGBrb1jXMqoVN4ZcmUY/GUIqcdN4eXrizkKXZhzQ6WYfKhCFRvRXHihY/w10cUeki+/D2NePx/LnEdmcv40CuncsrzZ2N3i7MYtCDIKLtSz+XX93DFL3fQZyUpdHxftEK6UhyvPXIan3lzG6rSijbxPTH+K6KB7uBSspZFmGd/EqatIIkEoXYn1/k8CpxyZ1BNNNvu3Jm5EFVTa3feaqlnYmGWz1LZJpx6yRp+f09KImpEEhYwDiRTHA0hSUolZM6yaDp89J9m8+ID21FSVdL4oAaaZzko1vaknHD2OtZsFYJQHx8z5SWZ0/L2F8zg31/VinNVP79YRbwisdBrHOf/tJuvX99Fv/ydFHUaX36QV8hWhg++cipvP6aEdQXM2Iac1NLSjn0ZBwS8FytfO+6AN2D2ewta8qSbqNWVBUF8tqJq5dbfiPvj6UGnfnSFYZpopuNQ87LfSpM6KCUJF/1qM5//fhcFo0m0IquWax4/qDzWw1Qcn3v7Ql7wNAnYK4S0SGcrJEnCvVsrnHzOJjbt8Jg6KCYkgYfaFXAq41VHTeMLb2nFZcUcwirxqSQpF/28jwt/shkbKl1OUA0ErZmSaM44cQbH7D0Fq7KarYo5fmsuXnk0CIjbWsqO2zn7oZ/5GVRJhJOap9UXQRD9lLQb95fzUI/8EKWqL6Lmma840lEiIBvIzGsKieevayscf9Y6ejNNAUvmk3E16+cvFkOqNMum9vGR1yzlxSslYFFCGiUhD25eXeHdF29mx4BE2tR+E4JgfELqU569XwuXvXceXkQKq86THeJW+HUPl4pCopZjJ25MInaz/2zFBe+ex/z2NjCVkOMeW0Rg6AgkONcPSTv6iA9jFr24mUIQROBtjBPBh478sI+UiGS6H8Td+HFUuTPkNEdtpGHD2NQnBHO+BLMknu7McPyXHmHVZokHkCqMRSkMPY745P4N40SGRTNvasan3rCEFxxUwGdBPpDf3lvh/ZdvYcAKQaj9j1kgCCG4MuWgBYbvfHwvdFnkpT1lDOf8eBuX/rqHTKUkWWGIKotjMwVla3nl4VP53FtmUFKtKHqqDp+xuX68SuMjIK5r0fmQb42ddzitz/w83rQ0TSXQuiIIA3gK91yCv+dbKF+uytbW/ku08R+j+hyhKSo+culGfnhHGZUm+CSbUGn+zGqmt/bzH29axIsPakOpCt+7JePj39yKkUyHOljaXukgJ+29YcFUxf/72HzmmAL9ynLpdb1c9POtVJzkj1c9C+O8VOQ+Um7aOofN4LTXTuMdz5mGk3K+mWSP1AGo44xRvPzIEPAuRf3dF3BznkFBZTixONZ8NbWRjXXwrLoiCK68hcoNn6TQeSfokqjAj2708eymRsAYz+W/6ecLP9qOq6QYo4NuwUQ1pRypb2PZtAoffu0cXnJwgcuv7+K/f9qPyYQA136eYxCI9hlOFZlR8lz5oXnMma656Cc9XPnbHspSeGmizXyh/oKipFIu/cAyDlskeggVEl9sKvPwRK3jprmPFAdc/krMypNR4nIIomeNHbRYVwTBrv4RlVu+SuJTjBp9MZemWdhxoE+IgJQl/sNDKR+4dCvb+nsp0DKhu3alCnhJ0zWOWUmR/3jzXO5cW+bc67opZFld7HaDDIJPcbqFkrdc+NGF/On23kAQ+imThMiKid21S7l3IS77zS1xzb/Oo0Vpyqqfghs0DccHIiIwEgQ8vmUu6uj/RE/fLwgpNXop6BonCD4ozzmTQVrB3fyfsP73obxsIiVYqvKXI5nqeE5EQNLzHtlR5r0XbuXebWVMKrXfJy61UMzdiXdYJ9XjUuZ3aDqmtHD/xpTE27opPib1J7wqYLzjqKe1cMeqfnY4TzFLgp7khPptqnREMlL+8RkzOfNN7WSp9EMsGVLeO1od45M/cgScStAHn4zb59gQSxRdDCPHcgzO9Ij0gTUWttyGv+k/0ZXuCd+RjMFA4iVqBIHdpX8l8Ghdv+V9l2znltX/P3vnAS9ZUeX/b1Xd293vvXmT8zDADEMOw5AGJBlgEQwrBtasiLK6a84gouLCmjDrqqyKmUXxr64BRUByGJghDwxxYJgcX+zue6vq/zl138PBFZl5816/vj23Ph/S0H1v3VOn6/7qnN/5nV7atcleaKM0BunCjY7ID+fjSoom6A8M50W341rC25AmV2nd8oYXTOWcUztIqilKl0JjhjzbdjvMUHx0hCwgUQM//TDcwk+iace0OKelySMIop0uBCgL930fv+zSPKRlR8g1i8sOtwVMCX59ax+fuGQ1dd8Orj7Kct1/C05G6zW7vZZunnkr6Q3hJEpQZlpnnYvfN5fdJ6UkqcEokXbOQ/Ho9tq/+HyjLKCdpx6NoXTMx7HjDydqcXdqboDgRZ8+QfVvobbok8Qblg5vw/hGeVVxn6axgAgliVdJCaFI/779W+tY8ngfOo3QsQDSxqUYmsYorTSR0KtXukZ6at5w2sJ2zn7ZOCpRhIocqmjW1Eqr3fBnEX6LEnXFOa+E+f+GkchUC4/mBggCDzyYtTfgbvssKulv4aUoHq0RFhBJY2uk33vEd69axZd+2xsasBRS3Y2wfiPvkbVlGlfRfPaN0zhuz5hU65A3LkZhgaFaIAiA+Rq2Mgt99OeJxu4SDhwigNaKIlxNDRBC4NJXcXd+DR79XRA5EQGWYhQWGIoF5JVhlSfybSxd38cZX1zJ5roPPRCK0YoWiHCqzon7jeGzb51IJZHdvVjrVlzpRj2TcJTMQI8RddC/o+a+TNQGRXyjJdNXTQ0QQq+7rgdJrz8H3b8Wb6QXd3ECaNSPoRXvY22duo/44m8386Pr6kRa3hrFaFULeCwdsebTr5vKyQdWKAIIrbrSjXkuAQOisaGcxc14DuaQD2OjcWhRW1QSRWit0XwAQRYgAP1MEjd95FdwxxfQplKg/9byvVF4GoU2ilse28L7/rtKV39faJRUjNa0gBzsRC8lwbP3ZPjvd+/ClPaBLXxgn2nNJy+eaqQsIAFsobHIruHKk1FHnoMddwCxVMgYKaMdqTuPznWbECBkjV7CIlQ3ULv9S8SrrwQ9BiXdG1WxoY+Oq7TIXZXn1ofqfPAHa9nUn/laMVrUArJXSMTIRszfxfPVM3dl5njp6y2tvYuVb9FVb+BjaTjgrTDvNLQABGE5t9hoOoAg8QMJ4yRCI1u/GLvoP9DJBpwvoVwacj3FKCwwNAuIbzn6bZmvXb6e713b3dDugkObc/GtoVpAK6GPGcaWLP/5ppk8d+9I+mGFUcCDoVq1+N5TFvApyeQjKD/nk3jdTiaJ0FohhKYECALunTTAfehncM/FqEjjrBPYX3CMit/nDlhAZToHPmVVVfOmC1eyYlPa8mInO2CwfH9VRG18zGnHjuFjLx9DyUuJ61838CKKkO/lHfXZS2+GeCzxcf9B2nkAsfhWi5Fgmw8gBB116cRWRy36OGrNEpTWRUhw1H8NrTGB0FxISEZ4Fj1c59++v5befgGeKamPMEWVTK4X2os+vldBIj9RZfaeWuOLb5zJvCmZ7HNRsZLr5W2qyTvZS1w/fp83o+WvIsUw8usjKYYQBdx8P+6Gc9D1jS3fEGPkrVrcYWsLiBiSaKj7uMLnfrmSH11TxRiHc2koYipGfi0QiImkpKpE7Kt88nWzedlh7aiknrHPW+yEl9+Vyv/MA+B0/dgJhxIdeQ6qbXqLJRhE86HJ4mwirey0Qi39Ae6+n6JNUdaY/59SEz3BAEFNFBUhZXlXzPu+9yT3rTJEri8XLZabyJrNNxUnlSoJNRvziiMqfOb107G1Ks7HREZSDEWzpuZbtJzOSPqOSOG9KqMWnoWecXTLiSU1HUCwPsXbXty1ZxFtXoovSIk5/fU06bRDM6EsZWWtC/yWX9/exScuWUfqKyiS0OO90Nto0vV7lmmJXI101Nh/eszn3jyVeZNkJVVYbyOl0/l8rGLWTWkBh1URsath9z4ds/frUKaUlek35Xy3f1JNBxBCJ/eNd1G/9kMYXw/iE8UoLDAiFgikV0ePizn/5xv59c1bCKXMKsYGRZ3idTIidh/Bi8qJzqYJHz9tMqcd1Y4pUkYjaO2d/dJCpY+IfI106lGYw85ClccHMr2QFVsBJDQfQLBV7AM/QS/9IS4oJ7YOGtvZf07N9vziW1IdoyPP491tvOtbD7F0TUSJ+kA7p1b4iTeb1UduPkE/BcUJ89o474zxjBf52xZvxzty1iyuvC0W8GiCFFdpAvqoz2LH70VoGq/kz/M/mgogSBjQ1zeQLvoP4nV3knpdyB4Mh4/9vZhXeDtKWc7Oe0qWvh7OaZS0E1eeS2+rccFlG6glDmOkHLIACMPhfo26hvMwe6LmK2+fxb6TZJuWzns7r38Huz/128/+JdOZkd99o1alde+T1UIJqUlMK6JJb4M9Xo6SqJVqjcbiTQAQPFKZhHKhj7va8gjpLR8n6t8Y9uesOVPhzTvyMxPJaqVNqP+3LsJoT6qEr28QMZmtR5NxVnfksbfzu57uOnzsB2v47f0pHdoKR3k7r1F8fFQsYBUYQxQnnPuyyZx67DhUrQ4io70TA2DvPFpHiISM0lZqO+QXj3Jl0LWWbC40Kv4XgJjDTzoYvfCzKGPwkcgx5z893gQAQYwrpY3ixQb/6O9wd3wZ5dPwo9/pTwDD4fFS0pcmQQp0fW9CZ1nTFhvq2mMsAwpg2Y12XoAgm6ji3rWW935tBU90K3G/YjS5BcIpTidUbRun7Gs47w1TGV9OwRmcz8pZd9YRfsuKULchB9zeqiK1MWPb+4kog0TOijFMFnBQmYQ+8jMwbl4WlZRDWc7H6AOEcIAN8CCc1+ySz6Me+wNWjCthmp09RDhMDuatw5syVyzu4o4naxw3v8zBu1Roj/VT8rMSK9uZzS0RK2c8v7op5YLLVlK1wokvRjNbQPxVWniPi2t8463zOGKuAANL6qRR00DkrJkfYATnFoSmjaErrXD93Ru4/aEuXnnUVPaeWaTPRsLsTnJcB/8bZs6paIletQD/ZdQBguADCYGHitLaBtJbPorZ8thAaZIrgrzD4MnWe7TRqLTGJh/x/u88zi3L2jh5geJfT5rIHjOFmOfwaZnEpxkxVNnwzyxKK9Ct9VM98oTGRXSVUs66aBNX3NtNpCQFplCBkzAMi1FcYhgsEDLpEizHKgeJ40OnTuKMEztxVY3TdRQROhNVbOkhfAKvpImdoNsIpyyRB12C7iTiujt6+N7Vq7lvRZn3vmIqZz5P4/pLOJ39zosxXBZQuLQGuz4fFrwPE3WiW6ACrwkAgsenDmc0ZvUikls/hgmkhGKMhAWU8Ty0JuK931vO/ascnW2e4/ft5OQF7cyfFzG5rDFGE5JoXiI7FiUvyJ0gUpttsoIS6tz+iOJ9P1jBut6YOMh/B7g0EktSXHM7LZB6T6TBeE3dwfH7Vvji22bTTh9eZJa383p5/nhw2TTKAKyqYZ3h0U0JN9xb5S939bJ4eZWuuublC2I+/urpjCtL18ESwk8oVCGGd+UDYbE8A47+D8yYXTPeV87HqAMEsZ9z0rEd1L0X4ZddGrgHxRghCziFjXq59v4Sn/jJGtb21km9Ynw5Zs9pES88tJ0XHtzJjPEC3CwS3AltTIXs1fLvR0mxSKTAhhTXxVf2cOEfNoaKBpVKrrvlDTBCTje8lxWfFGnslAqT2lIueNMkjt9d/LMTb+oDycrhvWfTXi1Qt6pBWvqh1fC/t3Vx/T01HtuYUK15rLHsM6HMV/5tJnMnWnADSH9nQlENWjyR5LKqDX34WTD9mJZoAjf6AEFyiNRR9R76bvgA7Zsew8sJthgjYgEhbnlKpL7Kd/7Uw3cuT/FxbwhNJsKrsYo5UzyvOnYGJy3oYOZEMGlQHQ8RhVYeynnqTsicJUoK+k2Z9377Ma59QIBDLTDCizH6FhA5dqUiUlvjLS8YywdeNJ2SsrgBgZrRn2FjZiDv+MRHPLLR85Nr1nDl4m7W9bajoz60j8JvdlJbwhfeNoPn7NGBTzxVVyWW9Isu4gfDu0oDvA5fw+/7Jvw+byJW+d8vmgIg1FwNs/khaje8i7bU4CV5WIwRsoDU/htMlLK+Gz56yRquua9OSQ7HQlj0iiRVxDph7rSY5+3fyfMPbGePGYbOkgqhSRDHFzGQ0Jc7C1W2RBMcCdNKi2B5Jo3XNW57OOKjP1zJkz2Wkpecd1bfXMQSRsg9t+Gy4m8u9ey/e8xXzpjKzDHCoJGRoLyQm7fhIrn6iAD0CAFGUZRJx23u9yx+pMbld/Vz8z2bWdMj/qowKkV7E5pSSZbwPSdN5IyTx6L6k9AnQKJgUn63M1crjczSZ3Le3tXRs47BHX4usWkbmVs18KpNARCst7jlf8AvPp/IdGTiE8UYcQvIO31Fl+cd31zDwxv7MLYSIgkyZAXSgRLISWM8h+/ZxmkLOzl0rzFUdIK3HutlQ4pRrooL+bbW2ZmlqY9yMXWn+MYV6/jWH7uIYwEHEtouo4umPyPun890A+UdYzsivnb6LA6d6wKJtJV872+f2/oSMVWILd31dq5Y0s1lN23knicttUQRGXk5iY5MJvDlrPA2NS+cr/nEq2cyoZRkrYiLbXUEfVbWQJIMVeiYRXzsl1BtM0bwfo259OgDBIEDST/1u79K/MjvcFHcch2xGrOUQ7uLVorf3dPDp37STY/tAxc/dSEdxKvktKGQSoiycrxg/4hTj5nM/N1LdJYSlJVynlKoemip4UWFrx2lelnVrznzG09w3xpDeyRNnrJy0JYImuRw0SSC8Orjx/PhUzoCU1z4ea06xMcSV2NdfxvX3VfjsuvWcO+TjoQ2Sqo/QHltIqy1GCNRBoe1MHdKwlf/dW/mju9D6TJpkmJC9KEYI2OBDKRJFMeLGN3h52J2OXpkbtXAq446QAgSSf0bSRd9nHjdg1iTtoQCVQPXcIdu5byiZj3f/PMmvvunnpCb1EbSELL1DOhQiCRxkBQ1WA9jK7D/7HJIPTzvgHZmTdJowQdOwpzyLx7J58sbVDTJ8yiuEACAlnSDQmvDjQ/X+MD3V9PVp/GiLhVSK8WGu0POt41flnB5Vl3iSJ1mvxmKC988i9mTFTqVdcrn0Vjq5rWWX9mAH4UuowOdJ3VK1RseWGG5+t5+rruvm2WrE2p1RSkSYrcNnW6lzFHM4720sg6MYqaMgU+9dirP2zvCWflzT1D/LTK32+hxQ/2YrEkJn/aj574cPf99mdGfqgLL334x6gAhvE42PoC/7SxMb2+QAPWSRyxGAyzgMToicZbNNcXZF6/k6vstsTD0XNb2+O+93IN2hYowWHYfX+dFCyfx0qPGMmuCRfWXccRYXw8yzgIs8s45DT9rrfjC77bwo79sJrEZSa4YDbJAeP+npN4QK8vXz5zNc/cpZ6REK2V7OSQ1h7ItA5HCJglaVXC2n1KUkkTtPLxG89MrV/HHOzezuT8OKp9/7/UiLYGM8aSS8gvy6Zq3nTCOd5zQTqR04CIUo8EW8BY/fh7q6K+gSjHaxgHcBpSWszHqAEHsZR/7Le7OL6Fl05UEWpEsa6AbSd5ME6k6j25q410XPcKDq2VjScLJ5Jlajgg/0QaIICDZMXeS5qTDOznh4DbmTFR0lHQQwJKTTStsUiL3v2pDyrt/tJ5lK9LCRxvoodoZUt2Hoo3XPqedj75yIkb2CVWCtE4+O7pJmkoibvLucEEWeksacc/yhD/cvolr7utjdXdEHAmlUPztmYbG+XoGWJ3imL1jLjh9BpNLdZwvi5RUA1equFVmAU8ajcEceQF+0l7EPg7k0Dy2b2oKgJDc9RXUsl/iSgaTGoIEWjEaYgEJUYrwjEQKpLb813fUOf/S1fSkFXTQan+m8G0mHSSnN9ncUiFIETFzvOawPds4+ZBOjpgb0SbheOmxkc8o8FNrIKkSpzx/uqOPj/x4fdYApzicNcRHbVD3rHDALM8X3jyT3SbJCzUGmwRwkMdlkJ+DKPFKemR9D/zl3n5+v2QL9yyvsblfE+koVCRISi8Tof/7PyCR7TACA6xnt2mK/zpzdrCP9THG7WSaEA3xxm27iZNqhgUfxe9+EpHNmjflMSU5KgAhVMoJuUYaiSRd2JvPQa2/K+RvpHq3KMHZNiccnk9lQ5DZcgAAIABJREFUCoFZaZ+iiuPLv17P967qJ6oYjPWkAf3ap3FDZI1UkFccbCErBxg56WislStZjt6njTefMIVj9oyJfA3nK+H/i6aAlEgKGz0LuzX/Fi9qkj6ShEmZ8y99kh/c2EtHWZPWo8C7aP4nGB5vadRVwstTlUhsHR8pdN1x/uun8LJDOzL9ZGnmJmVlIfTexNYPb3CPcHi9dFZMayjliOKIzTXNH++0/PDKlTy0qo6KyqF8WHpIyE9DIgyCDZ7p6YRbIB7ZRhumknDhGybwvH3bsE4he2zo1NrqWtONcsjtvI9K67i5L8Uf+E5iY/FqTC4PFKMCEILzi9a/kNi6H8f+5d3otAevY5RPcvHC2E5/ycXHZbvRXrG2bvj4T1Zx3b1pICzKpmWd/j+toZ/poSRp4ZTBWcWYcspBu7bxwsPGc9SemunjMtKiFhakLg9cMw/hBbGBChK/a/si3nXRkyx+3BObfrQrZZoQxRg2CwxCR6ccLtWccliJT7xqBmMj2WxzchqT8m0iKZglVnIgqlO1JR5ak3DdfT384c4+Hnqij9RUAk9naJ1rNTVb4/0vnMzpJ0wMJch5ANzD5ihNeiFlLcnUQygdfg6+VEKrMblcllEBCAJvBSDIS0StuAZ708fRpjwQrpbcdw5JR03qqNs1LQ3WakpRlfvXlvjQ91Zy/zpN5KuhqkHY/NsyJNagSAJJKg2nGcWYUsqcqWX+6cA2TlgwgTnTYrToJwxKv27LhUfxM17U+0ycCfIoz+8X9/LJn6+npyayUQVFfFiXRkj32pCkVawqsc9U+NLbd2fPCTUSZ/JzMlYqRMmkBLjmy9yzIuXyW9Zz5f11nuyO0Wk1NEJTSLMlQQjbHwlJUstzD2jns6+fSmdJog/F3jmsvjjEiwnYSzqmYRZ+GsbtSuRLBUDYVls6Kz8aCWsn2Pt+gFr2U5yOKCmpty+Su9tqx2H/nPNY7VC2jI4sv16yhU/+ZD1VXybS2576CeFhITGGskcJgqYoXwppDGsdsyYpXnFkJy8+rJNZ4w2xTvECFCSiFPp4Sgi5uV66NsCAGmkqJ8GIXm8456cr+NMSjYlrWdvLglw7bC4pPpBqR7tSnPWaKfzLQZWgyeFMiiTmpTtpc4zMZwNulHRbUBeVaFsW3a8lcP/qOj+9rovL7+iiLymHMkXj0iAu5iVVElgEMrYnCpV1tNxjepnvnjmBKeMjfE0Kj7YfZDSHHVtrFgL8bFyCQ8+GGUcTi4s0i8tuh6lHJYJgnQ2h7DTtgpvPQW+8Jyv5KUYTWOCvbZ37U83XfreR7163iViJgNL2bGB/v0G0wAUr9d8eZk2MOHa/Cict6OSAWSU6JQUrEgNK8vp1zN+UBY0mNyWzysDzS626djy4Lua9336UxzbJi8ESqSjrfhnAQjF2xAIi6S1mPPGAEue9ehrjxDeakGuQdaofUHKU1Jn8q/Gs6XYsWtbPFXf2cOvDKV19QTgj/BX8KMuTbPfIfgOSwqswpSPlnFdO4eRD2kj7U7zJWmAXY/QtMIgH3L5vhb1fQ5y1Ixz9iW3nDEYHIPg0hMJ816PYGz+K6l8fBD6K0VwWEHfe4hxnf3cjV9zfSzwM9ebZKUs2yyiLKDhNJarxnLkRr3ruJBbuVaJTpGNdJZRvbS8oaYQFg/CMNyHK8r93pZz3k7X0SbQkqaHM39eOaMS8WuUeYt/Ua6bGlq+/byYHT2lejkfQAwtaHw4fadb0Oa5a3Mel12zhwbWauvTukPQU6Tan6P7ROkrVkdOOal3x7hPH8a8v7KBNK5wAeKn2GEKaolX8ppmeI6N0J/jZJ6MP/VCWSsofPhBeTOML0FwgIqawdjHulvNQIsqTQ3TVTA45EnMRIZpIK+5alXDWD9fwyLqstHFHhkQPYgmDCqtbcq8SoFVtWG+o+JRD9op52dFtPGdOzOSOcmiZGpqgyDYslRM7cvNh/K6SiFdapZs2zv3pSv6wpIYWtn3g1wzjjXbCS8lZyyjL2afN4LVHdpBaiThuX/RqZMyWVfwMDvkvAQh161nZHXHtPV38+uYtPLDCk8QifZwQD4i+SYpqaCTEpz9JiB9Yz7F7wmffNofxpRTjYmzoHaKKEvGRWfjtvmoGEKqk4+dTOu5zONWeS0nwUQEIkndLhGvw6K/Rd/9Xc5cpbbdrtNIXJJ9qsCbh14vqfPqytfSLLk0oQZO86dA27YzwLyVcWXmloAUhpkq/h0BojBV7zYo4cb82nnvQWOZOFblYS2pFBjpCpUJkDee2bMNWA7yFhps+e2EsXlHng99Zxcp+g9AYmwfGNNwgQ75hkLQOUsEmKCSeOL/CBW+aTEcqvBjxltFDXaKxr4QvIP4mp3QpITSO3kSx9MmUK+7o45qlXTyxXoX0mfi19DjJeCk7rumSeVQo/cIrwz7TI75w+gz2mJxV1gTwFHoAiOzy0H6TQ1644ot/1wKyX8n628p4Ssd+HdcxswAI2+oroiMuHRz9vd9GP/L/CoCwrYYbxc9Zrfj8Lzbw/eu6KZdFiTkma8AwUkNRcyVmdfbw0sPG8bLjpjJ3XBVtLS6aCK4aNmHnBVwI0BitF4joQcT86JYtfPZna7FRlEcu0kgt4nZcNyMnWypM76hx4em7cNhuNaytoKTUdtTWV24d42yCEfnwKMYZxe2PK3505Tquv6eHniRrVlY2IlAkQGJ4X9JBgU90RHQlpOPOe81sXnyAhKyjIN6VexWy7fCS/Hw0xfkSyuhQyeCnHZHLfWFUIgjScczbftytn0KvWVKExXLg9VKu1e017//eGq6/32JUfeAEP5KTT0hpQ6WWmRM9Lzh4HC88pIM9p3rGxNKoRqolMubX6PICPT0oPnbxBi6/p5c4j8nGkVzGbbi2rKJId5P08s4XTeSME6cSe6lukWZZQ6oA3Ia7buNHZB5Ksa5a4u5H+vjN7b3cdE8PmxIwRvpDeJH/IpHGSSMQPwqqi2IE73jdMWN5z8ljaTeSVDDZnw8zINlGqxQfexYLSEWLTj3s/3r0Pmfk0l6jBxBqG7DXfwjd82RQFitGc1tAQv/a17ljteHsH67m0XUudKKTdIMbodCm1IaLcJbRJdJQGgvj2+HIeWVevKCTQ/cbw1hTBRtn4npSTkk80LZOPi+8hZHfQCUEHiee29d4PnLxalZszMp4Q845kG+H90TZ3J6yHbMbCIfLCVnC+EmiOGafmM++ZRaTy2nmVxJpVDHSenwkh6xVSCGIiuFAeFiIh0Rlnthoueaebv5wex/3r6rTW5eQv6TYRPI5O8FLxllJue5gqcIOTzbzmZB6UTaUeJ4wv4NPnzaB8RWR/ZZeJzarmihG01lADi5SMq7rNdLZz6N8+CdBCMw5q2YYHYAgRtqwFHvzWWB7itYLTefe/3dCodrblHG2xi9vq/LxHz+BisegXI1I/jz0bWjMkD4IeMuhu8KbTpzFc/YpM8bUQuUDUQ2bamITZWJcLhr5hjWhRa9s2nUu+lM3n//9ZiptbWjbh1OlAUnpxtgmT3eRHh5BrNtobOqY1BHx9X+dxYJd6lhXGfGDw9aMf+HZ2NRgRC1TBN9Lng29Eb+5dRM/uXYtj66HctSGVmkAMyO50Q/iSueky6P4b8QukzzfPHMme0wSns4g6CzQQbP6uyTLUonwuD7q7QfQftz50DZ14PAyUO/arJPfal6jBBDAP34FbsmFIHm9USQg5WCNmmKKYVM0FZSrU3eKz/22h/+5bh0pJbSTlruN26wyDXphc8e0xwnz57Tx/AMrQVNhtwlxEHWyItWvdKZrP8L+JfPRugy2jzX9Me//3pPc/ojFSD8hJ4HgQuPj7znxYGGCFoKd9Zx58hj+/cTJ+FQqAGTVGudTodWYgZ5ajYfWeK6+u58/3dnDA6tqRLqMET19KVcUcu4IT0uqdUS1VHxHoiuVkuec06bxzwcLTG8b6KFaRKWaYmN8hklIdEkqGTQJdT2ZtuMugPF7565ab1QAQugReN/34f4fZsIhhQZCM/v6wNwUwh2R7o1yet+Yxpzzwyf5y9J6KEVseBRdovemHqShLSVKxjN3guGYA2Jecvhk9pwJJfl/EtkY4R095Igl3CwnT1Xn7lWG933nCVZ3Cau8KOB9JucOvT9C9Ypi31klvvqWycwcp0PUR2rIR3rdBiMIsv30W8uihy3/u6iHm+7rY0M/JFaki+tE2gRAGvapBqSsQmpB4FFQlrW89flj+LeTJlLWorGRFmmFHOyWYQ1FA0NBUqtROvazqOlHDVkga7QeeXQAgqvjFv0H+sm/hFyaLlQUR2v9t/m+IewpeXVpeyytoXEsWun4yHdWsrJP2tPKid7gJSwq++gIn/6yOcgLOdO6l/ulTuMSzYxxNU4+fCKvOmoysydUKUdRJuUsVRehJMzI0T7QA4alvD6UtMlpTyIFKT6K+frlm/nuld1UE3nJbLOZd5oPBvkV73A6piOu87nTd+WEvUxobJR1+Rweo4WKAimnTTNNDznVSXQpCm2iHT3ecfujlv+5tpcbl26mV3qRxBIazkSHQrOlwDFwSPWVRDtGWjNX5AyM0yQ+5bh9S3z1rTOpkBF2I6oDHVB3GlfJ74OGPVPhkn7UIe9DzT11gKEy2qzbbTfpqAAEV9uEu/EjqM3LAjIvAMK2L1jTfFJ5Umf4+W09fO4X67FeXsKp0K0HXrqjFwId4I0xZYznqH3HcuJBZRbsVWZSKcbbVKT8w8lVCwFuGNQhn74mcvKzPL4Zzv7xWm5/TF5JI0uwaxqf2I6JBGCmo3BCf9NxE3jvS8Zhsj7wwzcCbstEtqT1saQRRL9AYk6PbXTc8mCNK25PWLKij+5+GwBEGKOsiitphZqqs9/kMue/fir7zxRyWzFyZ4FBd5Z9Zo+Xw/5nhtRReN/lJGo+KgDBdi/HXft+dH1zdgLMZYVo7tx1WCdsI42pQVJJ+PIv+/jeVRtCjTgSGhbVuIbnHP76ePIqCCFaCQ17YUl45s9s41XP7+SEA8fSoetBjc4Ro4WpPowjRDK8ItY1frVYcdYPV2AkuV2Mp1lAIgjS7XPWZMPX/nVX5o3vxzO8L0KpbJEN2YuwlhzajGHlJvjVrZv530V9PLHeU9W1vxITm0VkyKdUa4YLz5jKi+e3gRK6W+FDefsJPeVO3mNnLoRDPoqO2tGyPzaQs7UjdhsVgJCsvxN/7QeyH60qmtvsyAKO1neVc1htpC8N62qeD128ipsflLpwYXkPV4B4aE+Xha+F6CaiNaI+B0kKZe05YLd2/vmITo7d2zBtXEwURJYEUGSqjNkZMojoDi3MLSdVH6F1yi8X9XDWjzcTD+97b2hGabJvZQBSMWtSxEXvmMKunaXQAGvHx2BqYkBdUyv6neKJ9Sl/WtzL/97WzSPrbMgySVos0GecrHamYTB6I6NkCpNF/Petz5vAu144IfyepLHdMGVcRu/xdsI7b4037YQ9YOH5qPI4jIpz0zNjdADCY7/D3f4ZjInRojw2wjXOO6FvjvwjS9146HcvoWLPrY84PnTxE6zpi0PnsuFWkxvKA4VXUBBSGshDOyFaekqxYs9phmP3LfH8+ePZZ0aJWFVDCFrEkgOoCNnwoQ3vhenu+Orl6/nq5VUqoddrMba2QLYqjnFtMd96xzQOnq6xQyKTZiqL4osyhFlgfRoqErpqhsXLa1x9xxaueaDO2s3CIxgQHdoaAMr+E7DBUFd8x9dWUiBWpHnx/NN+ZS54866MUb1C48wa2w0LWWbH51lcYYgWaJ8OR12A75gZImd56V7ceIAggihLvx+qGHRURjtRwRtN5D7EBS++9lcLyB4dwW+XpJz13cexpRJydm+6IVMS4ZlIU7dCiHNMrvRzyqHjeeNzp7LbFIWxvaEfhKOc6d9v5wj7uIdEaT55yUouvcVRiRunEbGd0x3djytHxUR85k1TOWlvgx1CXjZrgCSVD0KgrWFiTRJN4Pp7e/nJX1ZwwwMpNSulrwIWpaPi6IGAZzS2B6M9PV6xZ2c7F545gf2nJThp9OQNRrqbju5KFXffQQv40lj0EZ+EyfOR6GuoBsvBaDxAcCnp7Z/BP/47tOnIIrkFQMiBq/zjKUqFQ6oiPver9fzs+q4BMZfmeyyJDsRKdNKFKyDd+Erg6kweG/HcA9s5acFEDpylGF+RmncRQNq+ZwiEOO/YVFe896InuPHREiVdG9XT6fY9QYM+HQgCWXrx/S+dwFuP78waHW33GEhWqJQnN2sWPVznj4s3sujBKl1pG2WdiEpFqC7J1rMJAcKAYmJJ1Tj3X6bzksPb0S7jHAhHJrRb2G67FF9oJgtYHaMP+SBqlxNQoRomH5ySBgEE2YmlhDiRolDcjWfDhrtCs5FRjuw1kw/ley6h33nCqm7NJ362jquWpZRVDetjTLOQvwbC2lko2eB9JlWrBhrsyPtpXIfnoF0iTjlsPMfvX2ai5MYTC04a44iyncKnDiW1iwNh7aeHf6U6ImV5F/zbt1fw0Fp5/jTfazsisw+GJ00drzl2HOe9anwoP/x7I4sRDDTmkgNFJIJ0wgQPy8Lj6yx/XNzDn+/t5+FVdfqSjPYsRY0hDRYCR6H2dpR5Bls/3UADKklviKS4M5zxvA7ecco4ysJjsSKWFMIeBbgcEf9r7EWF4+IPOAM19zWhRDzrodH8o4EAweN0Hfo2w00fha7Hn3L8JgX1zb96zTTDgUWUd+YtD9f49/9+mJ50LManuSnpkZdQGg6YBl+vMndaidefMIYXHjSRie19+GqE9234ShUTBHOy0+jWAEFOq9rVuXed4p0XPcmazRkfoRj/1wISnbHOcfx+7Xz7zKko9/eZKxnXZTCNoDEuwpZrLN9i+e113fzypg2s2KQpVdrASxVN85+35QXhrbRrlsiG4Zi9Knz+jN0YSxdOC8m1OSMdhR8PzQLi627PU2G/dwaAYAqA8FdDhp+99VhjUZsehls/Cf1rC2Q8NF9r/m9puPTWfj73/9ZTq+dhu85MKiJQ3kuTIKG3a1LnqSjP3rMjTjpwLEftHzNvmqEsjXmE/f5330PyMqtz7cPwwe+vpi8ZJjGm5l/17ZqhmE56MUjYf+5EuORDc+iM7d+1aXaGtiFv21Xz3LeyytV3pFx5VzdPbEyD2JoxYDI1r+2ax2h9OBOSFjneErMn1LngtTM4fHchW0pprkj0Nj/IGS3b5fK+Uik181j8EZ8Ibb5EhyUPoyERhEGAkBiPWbsYtegCqHc9ZZ8igpAHV3mWOW61iML/9yrh87/u4cfXd2Vh+UH23igyxZ/Nyply3kDoV1r8ylwHN2vjmTK2xPP2beO0Y8aw57SYOHTgzU692Ussa8JidJVfLrZ84pKNWCs58HzkG5/NPsP7/zMZYXmfT4gcPz97LruMzUSNgqR3SAlk/1+AQV+quOGBfn5xYw93PNpPd02yltIxM5MkzkI5Eq7PAUDwHlFLlPmXUJz32im8eH5MSZepi9ajtAkuNsXhdbdRvpr08WDiAXDc51GqgsmDn4YqsAbUz4Qt1HkSrdArrsIvuRBthbhVjFa0QEaqMjzRVePDP1rPnctdaBVtgoZdOKrn6LEHNBEEPEi9vHOUY80pB3eE3Pm8WYY26SdgLXEs3ZlSdNnyjT9W+dqfNhDVpe1rjh63QVP1QdlQEckL3qZ8+52zOWqPGBscRMoUNRLI2dQDtz5S5Rc3bOLGZQmp9ZSi7HwdvChoBOTktB34EAKWResgU/F8w9FtfOTU6UHaeTTLLBu07DvxbSx+zGz0MRdCZUpuGhQ2FCBInbN65Df4e78RmJzFaE0LyAbovKgUJtzyqOXDP1jJ2u6IkvRraEDzpJG26uApd2KH5vA5FV5wcBsL96owtVPjUk1U8Zz7k41ccmsvJSmZzMsLbKQN97Tri6CUlPcp0rrnU6+fwquPbMNbS92XWL6hznVLe7nqzj7uW5HSW1chjYCkGnJ8uhYFPTmTJannufu186nXTmJau3BU4iGV1TZ0yYqbDdkCoRtueQLmuC/ix+yeG+3gxgEE4SAIKffeH8NDFxdoeciulpcv6hDxpWz45c1dXPCLNdQENEgwSY7iOR/CO6yLIJJJqWjDHpPg5cd2csqh7UwYW+bfv76aPz9QI85L2Lvh6yHCQJKOgWpVc8aJJc56+QweWx/xqxtX86fFPSzfPNDsxqUD/IIQW8gqT3KZo8+6e6YOJlRSvvmO3VkwW1FPFbFIkm5vTW3D16y44VAtIHwbKb+Jjr8QJh7UxInWpz9hgwCCC93zQqh1yTdQy3+VG2b7UB1iZ/5eIGB5G8h+xnhqOuL8yzZw2fXdWCwm9EjIZI2fyh/nzWACdtMUo8sk0mnPB4V19p+hOWXhBH5+fRePbaiHk0JOAuANXgGRuM5emPVEcdheMfNnx1yxZDNPbKkEoS1h8nupSghyyELt8kFQSFITeRwy65pzjCtFfPCVU3n1oaIeWQrAQCMphiIXlcd13ZY5ByEv59BHfgI163m5ybI2BCAEhfGBlIJbdD5q5bU5y0NviwsUn/l7FshoZ5ZHNsWc9aNVLHksoRRCxfKCyDFAeIblFrEfKWGTl5kwla3LBJeK8SwWCAdocQidNbprwdO00xptHW94bicffukktBNh5WLsDBYQMnNIqx/0dtS8V+emjLVhAMFKSZO3pDeeg1m3KDda1DuD847kM0qfDa9LxLbGTU/CB7+1gg01HXLPIgbTakPAQOggKEz1AIoHekG02oMO8/OItJEoUEo0RpkymXRE/lNRg2aSHHTiUo7bYyznv3UCM+IYVyjIDrMXNe/lZD8QMq7a+3Wo/d9WSC0/fakcqRjI9WGv+whm09IixdC8vjysM5MXpugJiBa+tND7yE/W85vb+tACHFqSiTIAegbK77L/aj0gNKxOMnCxrEg0Uz0MpK6WGopqkvKp06bwuiPbsSrCqIKo3VJL/A8eJlTypQl6zotRC96P0nEuHr0hEYTQ20/UapMN+Gvei+p7MqtzLkbrW2AABUg++Y4VNd570RrWdLd2hilrHFyAgiE5d2uixmCKxCmev6/h/NdNZUJ7SVpMPWWiBlSbD2k5ii8NhwUGZLFcgp9yMOrIz2Di9lwwaRoEEDINE/pX4K59H1TXFwBhOPwuB9cQmWGblOlXNc7+4SZ+d1cXlSjKwcyLKRYWGE4LZC3QY1Pi46+cyKsOl5Lf8nDeoLhWE1sgHBqkUeH4PTBHfwlTHlsAhMH1CkpzAhB6HwoAwSe9uRGKaGKfy83UhKDzhzurnHvpRvqsiCblZurFRAsLDIsFhHMp5ZkiozxvKnz17buw+/hMibMYO4cFRL+j1j6F8nHfQLdNzMVDNyaC4H1orWs2LcLdcC7KSUOVYrSqBaSEUcobCaVpltX9inddtI57nkwgFU39gtXfqmtfPNczWUDEG0RLNCWxipccVubT/zKJkqRalQn9O+SfxWhNCwSAiCKpdBIf81V05+xcPGjDAIJAgmjln3CLLgyCuwVuzoV/DGmSkoG31mFMHLQvvv6H9Xzrim4iJXAhKwEsRmGBnc4C3of20zJKyvKZN87gpINKpM4QSdlG8bNoWZcQHQTp4OiFe3D059Hj987FszYGIMgLQ8zx6G/gzq8XkqK5cI2hTzIQrkwF5Xq56eGU935/LV19Wce9jINW7IRDt27xzVawgKQajpwX85nXT2JaBzhVSC23wro+0zOEMkfZ+XSMOuZCzKT9c/G4DQEI8loQgOCXXQr3fScX5IxcrF6TTlIqVFKr6OpP+MiP13H9g0lQwJM0k0QRCsZ2ky5cMa2GWSC0m1IR73nJOM58fge2yLo2zPajcaNM90toqhp1zBeJphw0GtPY7ns2BiCIaIyU+Sz7AdF9Fxe5tu1epnx9QXQPyjrlR4sSLrxsA/WB6KkQskRlsAAI+VrPYrbDbwFpYW1Tz6RO+OY7ZnPQtBTrpLonRQsXoaDpDL/RR/GK0n7GG0+sYvwR56KnHz2Ks9n2WzcGICCd2zzJ0ouI7v8p6KLMbduXKH+flAjCk7WEf//yWu5flyBUxWIUFigs8FcLhAOlNG5K4JSDDR9/9S6MjxOULguVrSUlxHbm9c8AgiP2Bn/EOeiZz82FORoHEJwlufubRA9eClFR/5sL7xjCJAUKWF3mY5cs5//dUEWXdFHSOgQ7Fl9pbQsEVQTliHQb2F4++erpvOKwCGsriHZI0b6jtdZfqlmlS3mcWvzCj6Fnn5iLB2wcQEgTkjs+T/TY5RCVcmGcYpLbbgFx/pBHUnDl/b186L8306ekOa+QrwpJ2W23ZPHJncECkmYTgKC9DtoI8+fGfPktU5jRZkKNVxFzay0vCL1ZFEQp+MPej9n9RbmIEjUMIPg0oX7rxzArF6Giot63tdxfBGDA6ITVfREfungVty1T6FIamu4UNQutttrF8wyrBUJpj+OM54/nvS+dhEqKFMOw2rcZLiayMAggjPEHnUm0x8tz0Y+ogQChTv3Wj2BWLkEVUrvN4LLDNofQdslqTCXl4murfPGXG0klRuotCgGDBUQYNmMXF2pJC1iv6QQufNcEjtutEtjuxWgdC0hKSXh4kY/wB74FM+9fCoCwNSXHp1WSWz+IXnU3yuSjk1XruOcIPclgJ2PpXGgc96yC9317BU9scURKhEFKpNKxrtUa842QOYvL7sQW0IokURy/j+E/3zCdSW2Dtmjh7lU70XJ7JQBBETtwB56OmfeaXFTzNSSCIC7u0l645j3Q9WCo/y1Gvi2gvcHqNORQhX+wJYWP/XAlV9xpiWPhHBQnoHyvcDH7xlpApJg95djxwZdM4nXHTqRe65c/ItJx4CsUI98W8KGeq4rd8w2U9n0z5KDlc8MAgk170Fe/B9/zcC6QU75dsTGzt1ZCZhoXw2+X9HHuJWtIpYY7LdodN2YFiru0ggUGYwQKR6oq7D054ds1mwwIAAAgAElEQVTvncu0Si/etqFUwUnI/TqHKgaRma9i572B0n6nFwBh6yBZARBy7+JPewDhHSgvDl9nVV/EB763mtsfU5RMDe8L3kFrrXbxNCNuAZHiVT50vXXe8LIjy3z8ldNpi4TlK2+XEZ9BcYORtEABEJ7ZulmKoQt11btxvY+iihTDSLpiQ65tfUJEBRs5vv37LXzjis2IQJK3Hh+FaGkxCgsUFthGCxhpZKY12JTURJTqCV9+yzSed1AFZSM8aVAg1UUn1G20aJN9zKvQqEtRw+3xGuL931pEELaOIPj6Rrjqndj+JzFKHL4YebaAkyoFZ7n9cc87L1pBd1WHfvfFKCxQWGDHLCCRhGpS5ti9PZ9543SmtmVBBPnJKellUuyeO2bgUfh29r4T0bgEN+flRAe8HUzz6wE1jINQAIRR8MqRvKUvsa7Wx7nf38SVD/dlfe2LUVigsMAOW0AIwCquI6G4D7xoPKe/YBw2NDTJepk4yUMUI1cWKADCP1guMU4BEHLlz886WRV5Lrkh4dO/WIUmwgW1xCKE8KyGKz5QWOBZLCAlcZFNqKs2poxJ+Z93z2LmBIPSEd4L+6cACHlzogIgPAtAcMkm1NXvwvU+jpaOVnlb4Z19viG+CU46MuKD1sF7vruO+1eJnLLKTjUFPtjZvaR4/mGwQGgKHJT3FNbDPx9c4WOvmkxnRaFDLrvYPYfBzA2+hA/kbeEg2HmvpLT/20EXKYawCIGkmGxGX/0ubAAIBQehwd65w7cLec8oQguJCs2nfr6JS2/uRfs6sS4F/fiCar3DZi4uUFjg/1jAGDjvtEm89NCxKJcMAPECjefKVaQXw4AOgtvzXyjt968FSXFwATOAsAV91buxfctDv/MCA+fKvUNoMyBeV+eqB1I++J0nqOsSxohCmM5YVMUoLFBYYNgtYLXhkJnw+TfPYNY4STEI36cACMNu6JG84EBESFp5u3mvpbT/WwqA8DSAkHajr34vtvthlC6aNY2kL47EtYU77Zyh7iwXX7OF717ZS3civANDNBA/QHqdD7aqLfDCSCxDcc2WtUAml5T9XfqYeGzg9RiUt+w6ucR5rxnHkfPG4tKiO2oe3cB66UxTz5QU9yuUFJ9awxBBcP3oq9+H3bI0kG2KkS8LSKORkPpUjqovc/eKKpde08NVd3axxXnadBkT9YAqYVM54RQIIV8rXMx2NC0gUYFIWbT8vkiy02W1wtRxipcfOYaTDhvL3Am10DxdSc6hGLmygMjRW6eIVA271xsp7SNKis3/HmxYmWMGEN6P3XJfARBy5drZZLOzTUTqLcY7tC5RUym3PNjHL2+ssuiRHtZ1edAGE/iMBUDI4TIXUx4lCwhAsDZFKYOJYqZ3pJx8WDv/fNQ49pyig+aIZPkyPf9i5M0CPhC5wag6dq/TKe3zhgIgPC3FUACEvPn00+c7qJKoJZKQ1WMLItbG05ek3Puk44rbu/nzPT2s3iyIQm0lnPRU28eBaxZbXL6doZj9UCzwf/oyhj8Q+q8K1UHyAjlw15gXLejgmH3K7D6tRDTQ9Mw7FYSSvEQZCogwFPOP4ndEZ9kQ5OlVgt3rDMr7vLYACFsDBGwf6Y2fRq+9DkylCEGPorsO5dYi8ypDDyq5hXKrcKRBEWG0x5ZKrFzVzyXXb+Z/bupmYzUi1nIq0oj4CybFSXRB/laMwgI7mQWCGiLC05EXhUY7S2o8SdWz57SI00+YyEkLOugsObTzQZpXAIH8xkSDL/wCB7H2Tma7vD9upn6p0WmKPegdxHu+CnIgLtewFAO2n/TWz6FX/hlvykUIOu8e/7fz93IKckRRpim/bK3jtzdv5Kq7+3h8vSMxlshFKB/hVdpqT188T2GBZ7WAlzSBAqMlVZdSKWn2m9rGKYe38fwDO5kxwUBSy9IIBYZ+Vnvm7QMiT29Siz343cRzX5ZpZzf5aBhA8L6Gvf1L6Mf/gNcirVOMVrKAIpOAFZCgo3IgW9Xq/Ty2Ba6+t4/Lb66xbG1CqjxxKz148SyFBbbVAiEqYKhEKfPnjOHUhWUO3avEtEpZaNxoE2dyyoNVQdt63eJzObCACqsaSbnjIR8g2u3kXJSqNgYghNhYQnrH19GP/QqKbo45cOjtnOJABEG4CbLWVtQyQxgV4kixoT/hshu28PObelmxMQ0bpQpacTrTWAglEkU/h+20evHxprNAlgMITZUEEEjmWcu/GyKdctAuEWecOI3jDyxRkt9MqkhNGro4Bi0yEwUyYnGCarqF3aEJyT6XIgRvDYefhdnlBTt0vUZ9uSEAQVCx+Hxy93cwD/1soIqhYLk3apFH9z5ZTbek2ySitror4fI7+7liSY2lK2r0pS74g3YCGoq40uiuVXH3HbbAQNtF4RikTgi9jontiiP27uCkg0XHAMa3xxkofmoLHKQv/h8a4w5Pp7hAs1hABS0542r4oz6LnvmcZpnYP5xHwwCCSHvYB36EWfr9XJAzcrF6uZuk8LXjkIbYXE+5aVmNy26ocuOyLqz2xEajJElbjMICObWAvPedjnDOMr6UcMLBYzn1qMnsM93TWU7xgXMYS0IuRBaKsZNYQAoZpIRVlBSP/Axm+sJcPHjDAILQ0vyjl2Hu+q+iQj4XrjEyk7SSVjCKSMKvvkw3KTfe28ePr9jMPas8NSeh1qykqxiFBfJigRAMCAEATWepn2P3rfCa43bn4DlS+dONS9pD2kF5gQZJ0AoRuFyMncMCoQpMxxjlcQv/EzPt0Fw8eIMAAghAUCuuxC/5TxHjK8occ+Eewz9J2RKFeZCVa7lQ0y3phw19cMtDffxxSR+3PlhlY69F6yA6G6RnBzkLgzMaLLsc/hkWVyws8OwWCKW6Rl7yDittSlBMn6A44cB2XrBgHAfNKlOJqqH+HS+03GQQQWQHpAIEP7uRW+oTciBSWcO7Y76EnrBfLp6uoQDBrL6NZNHZGCcIoeAg5MJDRniSTztDpZ5+A/etTrj0im7+eFc3fbRhXF/QWfBK0hM21JDLaawYhQUabgEhFlqPiut4X6Ja08yalPLq54znJUd0MnNCTMnX8GlJoEOIlhWjsEDAhN5hSx3Ex34FPXaPXBilYQAhkRKPDfeR3vRBtK3nwjjFJBtrAadBi1aCTbFlw5JHEy69bj03PWhZ3yNJPBFdGiR4FxtvY1enuFsW93SIn5ZdB7tMqvNPC9p40WETmDNZCGguEG0Hu5uGgp5iFBYI4CDoZZKWpxEf/wV0x+xc2KUhAEGKfSTFYDY/Rnr9uzFpT1HSlgv3GPlJbh0JEPKi8yLfnIVspeqxt+p4aI3n90u6+fMdXaxYbyGOg0KjhG5DIZmXJjeDUQVXdJ4e+WVr6TuE5nLeE6kIF0CpiOTGWAtlk7DPLjEvPHQMx+3XyewJmpIW/Q+RFpdXgFQuhN6noROjDuW7xdjpLRCqWyxp2+5Ex34e0z41FyZpGEAQa9j+tahr3wN9a4pKhly4x2hO8q8lX7LdiqbCk1sifnbDZn5943pWb4nRcY2S1jirMbEhTRK8EaGZwGwYzckX9865BYIUsuh5+JjEKYxN2W1yyptOnMmLDh3D2A4HdckrZ3GFYhQW+EcWCLuRsyQT9yJa+GVMW3suDNYwgCD5F5d0oa59H3QvLwBCLtyjiSYpIbooxekSy56w/H7JFq69q84jG+vUpL7YS0cIFyJVGa2xGIUFhmgBUbuTAw2KcSXNvjM1pxw2lhfMb2fKWCB1WOEhhHa9QrktvG2Ilt55viYBBG9Jph9K6bALUCVRz2z+0RiA4D1e8soqxVz3fvym+wuA0Py+0VwzVB5rJY0gOvX9pC5iZbfnL/f08Zubu7h/ZR1Cj49Mka4YhQWGagGpSmgvOY6cW+bUo6Zw4BzD1DEuI8ZKRYKzOGVD0zFtRAm0cLih2npn+V4mFutIdj+O0vyzgxx9HkbDAIKTXuda4W4+F7XmRlAmD/Yp5tgsFgh7sMMZj7OS24UolA2J6FLMH27p4pLr1/PA2hKeWhBkiqXDpKujtMH7OICHYitvlgUd3XlkEsgWY8sorUmEOK1LlFWNg3aLeOdJ01mwV4kKNayNcCIPrzzaJVm5mmxfUqo4ELEa3acp7t7sFgg+4xPcXq8l2v9tgTOVh9EQgBCklqW0UYO7/QuoJy4vIgh58I6czFEp6ZInHIWYG+9Zx+/vstz7RB89VaGMGbSW055kHgpQmpMlHfFpCpFQiIjWpCgbMWWs5rB5JU45eBwL9ykzriRRzyIYNeILsZPcIGv1bfEHvgc979TcdJ1pCEAIvbCdpBgM6p5vwcO/KLqR7CQ/jEY8pogo6fADTELsoKvmWPSw45Kr17Hk0RpVXw7StsZIqWQjZlTco9ktIG7QnzgmlSNOXtjOqUeOYa9pmo5IvKhM5JOCWdDsi5ir+Xm0RBGO+AR21rHkpZ9x4wCCT0nlNLfsR7D0h7la2mKyzW0BiU5JyFg6pglxTEnLXJPSVVPc9EDCz67fHIBCXTqphUhC0HLMOkkOIAb5Z0E2a+513tHZhdJDHwpomThGc8w+FV577Fj23yXGeE89SYkq7XiXBh8qRmGB4bKA7C9axaijP0c66SDinAi9NQwgWGGhy+b8xO9Qd34tEH0GR9GfZ7jccGe9zuBmnnWOzBo5BIFmnFZ09cEdy+v8bnEXNyztYUOPxoiMs8mIZpJbTpzIPgu3oWCkt4oXhZX0WTWCcAaUtew6OeZ589t54UFt7DO9TKWknp5KCP5TdFVsFR9olucI3TvLE4iO+yKuY/fAocrDaBBAkB+pQ1uPW309avHnwFbzYJ9ijjm3gBsoLzKxo2oNS1dG/PQva7nqzi1srJeI4xIRtQxXhMxgcXLM95JvtX7KUZfueWmF2Z0lXn70GF52ZDuzxnmiNMIbiTwVo7BAAyzgHb5zV/SxX8CXpoRmXXkYDQQIFi2koHV3Y249D5KuIoKQBw/J+RxD4sCImJLkAOVwWKMexyx+OOW3N3Vzw7JeVndLtCHNUgxFBCHnK55NX0oPI2PYdVLMP82PeMnCsew2KcbUwZkYq/sx3jyVVipKFVti2Zv2ISRl5ScfgD/6s6DKREUVw1/XKpPDTUHCub3L4caz0f3rkSSDEDe87NzF2HksMJhTGuyrMICmR2qT/iu/wIdws5E8tHb0O8eylY4/39HD7+7sYdVGFygKUQgkaJyUtYVStsGTZk5gf8t7kigY+qBLIOVjRv4pvIEopi6pIms5ePc2TjmkjeP362DmxJhYQegRp1K8pJesHkgljLCxts6fFrLLI2zs5r28aCD42cfDYeeG96CkOPMwGhZBkEY7zml0fR32prPQW5YP6JZLh54CIOTBWYZtjlttmlsD6ZECCM8070xawaLjMqu2aH5xaxc/vWID6/s9VGpUnFRHeKyKstr3IiA9bC6wQxeSk7+kBwQUBKaJVEhNwNarHDA14fUnj+eEBROYILUr6q9cJ8kjNXKnEX8Ost9aY0MX0h166uLLObZAIL3u9XL8/u8Me0peutE2BCBkMb8B/pjtwS76JH7VbSgTDbDPi19Ojn1/yFMPqz7AKxzyRYbhi97boHuTesWjmx2XL+7iT4vrLN9o6a+laKOItJxWh+FmxSV23AJSNR2k6UTFUNPZpthvlg49Ep5/8DgmVwQ8SP8Oh5LKldEaAy8CeRm4QIYZrYkU9x1tCwQF2APPxM55Bca7IN6Wh9E4gBBAQob63R2fxz76R0wkqncS9B3FH3EeVqmV5hheslmuf0ufpa2iqJQ1WGGTSwxYInCy+WfSpPISkP66wgIWJc6sSGF4TvOBnyAvGTmJSgVcYA7JZg5PbEq55WHLL27azH1P9GK9wcj/H6h2CNHqp+ZRIIeRcNHMqrJKwdjZy15ZbChXNZRMP4fsM4ZXHzGWw/YoMa5NdhKR4xa1TY+RbeXpIaphjCBk85I5BuAo85OOouI8ymeaXDpiS5ciTaqMHytKnoWfjISf5OKaIgN/yIexM48LAEGHPh7NPxoLELLtH/fAz1B3fpO0VMEokcHdKgzY/DYrZrgDFpDNWzZU+YFc9OeN3PpQN0cfOIaj5k1gl8mOimzqIRxbQjlDnWooCZLvKUoZN4Ak+7MRPJLJy19rT3dd86tb+vnxtZtYvqEe3gZGSI8CKMLboRAF3QF3+AdfzZQOtZSiWhPacMmpy6WaStlx6Nx2Tn/BZBbu4UNNeTihj7A/PDVZF/qLitJyAAOyf4U0gs1KbPtrZZat7uG6+3tZfF8vbz55Ms/bt4TyQZ95ZMxVXLWJLaDwpU78Uf+BGb9/AIpFiuEfLJdf8Wf8LZ/GGhEtEU2p7ORYjNa3gKy18xHGJ6ypaS64bB2/vdUyfXLKXlMqHLB7hfm7x+wxPWJap6GtJIBBh5Cy7MeiYR425waYKiPCZafDVd11rrsv5Y+L+1jyRD/9VQEGcl4dBLdF/Hg4lyRrdyAvX4NoqEikcdoYw+H7tPHi+R0smFdhbJyALzWEbPi01ZXOtLLJS6MmFdHdb3l8Y8KDT9a48zHPfY93sXwjuLrnPa+YwOuO7NiKFNkIzx3OlSiuNSwW6JiJP/I89JjdMpG2oorhmc3qN9yLu/adgYksTVBMwe4dFh/Mw0VCTw5nIALrUjb1t/HRi5Zy4wqFFUa6jugwisljYvadCUcfOJGF+5SYPVFhJAUhnfSkp7MR5ZvBJ95KKGm4jCDhgVBhE2G9JUpKuLjKlqTOnY96Lrl2C7cu66NGBSHgSoRjJE+ww/VYebmOpJusMdgEpnc6nj9/HKce3cbeExWVioTyO0J/F236xRlG+LEkfSC38GiJcGlDb1ph6Ypebl22kduW9fLgSseGapmEauj4aFLPO04cw1tPGkfsDS6CksCKAh+M8Fo14+U9bvx+qIXnoivjpI4KJc2/cjBGIcUArmcF6TX/jq5uxpuoYCDkwFGGa4qSKBAWr5zAtOy2OmVFTzvv+frjPLDaoZUL5YWJSrEuwtiUqWMMC+Z2cMReZebv0casCTA28phYCmAM3pkQ7g2h3nDl7OWe5YWHeLJ/CnNI5CLr8mCooIlRJqU3UVx7X43LblzL3U84tlQ1RgnHpsAJO+orgf2vY8aXejn+oIn8y3ETmD8zKz0V/3ES4ldJdrDwQnQe2ls34w9kdRBeqlmMbNpZ3ihbRpHHjQIArDrFlmrMwyur3P5IPzctXc8DqzzdaRmtSkSy9rYX76Xzo+PFB5c4+9WzGGc0NkqJ7CDI2FHrFN/PlwWy3cNOPx4O+UComJKoefCrHIzRAQjJFtIbPorZeC9eC3mnGDurBcLaa8e1D3rO/9lKHtssde3ZaW3QL+TUFYSQlWNCe8JuUzs4aHaF/Xcrc8AuETMnGspRRkwLYEEuIBt/SBGMzBvbSbTDODb1OxY/Chf+v5U8vAGiYSJQ7qz+ENI6OF64oDNwDOZMc3RoOXkPb5RgEFQYFYVIhNMua6YTPC3CKxv4J4+tq7N0RZ0lj9RYurLKkxsdXf0CHCTdJaTZjFAb/l1m7uHYeSU+9cYJzGgvhShpMXZOC4SYYgCgNfyer8XvezpGDkVK0ur5IOaPCkCwroa/40uo5ZejVDyA13dOJ9rZn1petFE5Jq3286s7POf9+CFqegzSePFv9TECZAiFBJKa0pRImdrpOXBOB8ftP4mF80rsMqmO9slA5UOMCy+W4SfBaidZcVHiq0NkeNdFq7j8Xkt7yWNtAXmH6tfyQo2N57zXTOdlCwTwlUPL7qyRy3AOhayhE9/Qsl0L0TCmSsQja/u59t4q19+9iXuehL56iCWEgggj+S2JTIWKmoE6CyHdGk29lrDXjJgvv3UGc8YbdFlJ7exwTrq4Vo4sIODAS5TLJqgF78fPeYl4UeY/OTkWjwpACL33lv0Y7vseKpCMJKlcjJ3RAqFeXUcYLIn2XHxVP9/64xr6XSzF7lnuVzbggUByYLYLa10I4yKZG6oJ5FWdMLVTs/euHSycN5YDd43YbaphbBkq0UCbZ7mXBI4H3t/Zj3TrF892vNhFQMmTVeEYzwW/3MLFV6+jVJIQYvFSGJIvS+DHedpixRfeNI3n72+wtpKBsO3ZUAdP7QO8kJBGeCrV5AJfJFBMnKffGTZ0WZZvVix6sJfbHuzj/sdrIYUUyhaN+IfDCEjx9XD681sRzHyQZ8wqWiaOrXDBayZw7F5SalnBFy2jh+QGrfClrQGAdQ6z8NP4mc8JR4qQXh1q6rPBxhklgAB+9V/wN19A6ixxPqItDV6aneV2slln+Vl5sfZ4xVd+08UlN2wOpMXs9C8tnO1APWF2cgsv4afe5/LSF7ldiS5YKhG0VwxzpkbsNytm/u6dHDinwoxxKSWR2ZUohJUTYxR4DiGsPHD/wd/ts4WGM0pi9nepef/ulV185tdbKJdEV2G4T7s7gS8EB/B46xnfrvja6dM4dG4JZ6VmPAvfb8sIUgkuq4sSLkskHAWfiKZitlaRoacesXxtjbse7+L2h7pYtipizRbo6U+yA782IZ0VNnk5BT7VIXRQtHuQkOpDCDnFMjZWfOy0abxoQRtSlPmUSMK2TLr4TMtZQDQ7rEole0oSd1A57qv4cXNyEzkYXJBRAwhsXoq/8VxsbWNuOlu1nBc32QM5asSug1V1yznfW871D0WYSIK7jnoq+gPb9pKQ/r3alEh8TC1N8K7KtA7Pc/aayAsWdHDgnHZmdToiJFwsL/SMvyBhY/lre4eIov3q1j4+/NMNRBneKMb2WiAIIUnAP2JGZ8o33jaLvWeYwCPJVLO27YISwpW0VbYI0p8hyno0pJon1qZcc9cG/nRHN/evsmyqloljUckU3sFQ0lDSTrxM2VV550sncuYJY3DVv0aotm3Gxada0QICHK2yaAvViXPpOOrzUJmYu0cdBYAgeT+Hr27E33g2quuxYkfNnduMzIRD/YEoFqo6yzdEfPQnq7hzueSka1gfb7PITDj7yY9TQgrCQVCaRECA95SMZtpYzX6zIw6c28FBu8TsNqUUuAzxVnLK28MtkwjCTQ8knPGdlUH6twiIbb9/ZNUtlkRVmDOxxn+9Yza7jpWy16Cctc1Jm3AdA711z+ouxyOratzxaI3bH+7n0XWWrj6JSWW8lFiOdyE2se0Rir99stTXOG3hJD546kTGSX+IkNYoPGD7PaC1vvEU/8A5+nY5ls7DPhEiU3kbowMQXEri6qhFFxCtuXmbf/x5M24x3+20QEDdKdqX0CbhzlWOj/1gPQ+tt0RewsY2JHuz9MI/2IRDyWOWupARGOch5CxpCCmFjDM1R+PoLCtmTvDsO7uDQ/do4/A9O5k5zmMk3+w0qaQ2TMhAB2AbhL2kWkILP0JAh6hCKh5c43jVF1dQrZObTm3buToj+/EgQuio25gDZ8N/nTmDyR0CtoR9Iqf7TENAXr9GC/lUuAQS/REeSBp0Nap1xUPrYfHDvdxyfw8PrbWs3eKoCmc1NE6SsRU/ZFAeOQgxbRtvZDDJIKWW4o8vOXgCH3pFB9PbJQaRKSUWHJSRdZVcXF32DV3CuRrp/m+nstdrtjUI1lSPNwoAgf/P3pmA21WV5/+31tr7nDslNyG5mUMgCfMgQhAkinXW4kxFRcWhItba1r/aotaCcxUr4thKHepQFa3WuaWt4sA8CwkzhCFkTm6GO52z91rr/3xrn0sCBnLvzR3OsBYPgmSfvdd6v7X3fvc3vB/eWqkMRa3+V/S9Pxqx+7CukIuTmSAEalmJEvvFcenqIT7wb1sZUOIG1hjp/OkSbHhpjOyh/uiJPqKgX8si8EE2OYg0uYx53Y4nHdTJM548kxMONvR0t9EmL5e8hFWDuMSHMsrEmiDaJG8o0XPYOOh5xQUPs2WXD42d4hgLAo4sN5xyaMIX3jSPrvYCRyF6rqaBIP0NEgbBZ2TKMFiBB7c7rroz57c39nH72l525qJdkITSV8lNKfbJONkkSH2LzR1PXtTFp8/pYV6bqIOOZb3xN82KgHQYVb4Nrx3q5E+h5h7XkH6lqSEI0rBJbtoH/xtu/vyElKE168ZrqXV5Hzosfu+afj7/8+30V+RRXwmlseORBVYkn4kHQIdkOPEziH9BwtdtqWNGp+GIhSnHHFTmmMUpS+eVmduVkKY2JKfJS0HyF4S49DvHqy5czz0bXVQGHcMmDVkD4pHJE154nOGC184L5Y7Fe7eQ2ZbS1iEL67Y77lxb5fp7B7lj7RAPbnZs7c+CV0l6fIjYlrgbpMpkvJ39YUY64cDpng+dOZeTl8o+aDzX8RhMFH8yCgSK8kYF0+ZgTvksvnPOuO/FUUxnzIdOCUGweYWQvbFtFf6K81G+Mn4Mf8xQxB/WIwJWvtKTMp/7716+8j9bSEsdZFl1vL4Ha0suvjLDy0gy3lUJG1zFkvKmxeVFyXgWHJDwpAPLPO3oaTxlWYnZ3T7UuYsig9cZZ160gRsfkIqIsSS81SP6kzgniRUkKfJoOPPpJc4/vSeEbqTkJHeetb2O3902xBW37eLWhwbYIbkEPi2+5oNz39S+4oXxDatpjl9DryJPQTwFmnZT5ZNvXsSzDpMy24SSlt0SR0RgNwJOGrpVqqi5R5M+7XOhNDZoIDTYmBKCIO11JZnLDm7AXPlu6NvwqJjycJ16g2EZpzveCIh7WGLNXtFbsXz0ku385NYMkbPRoZ/ueI8iWz7QhZDrUHTtCy4F6SRoRU63CCH0zEg4YWnKyiO6OHxBGwvmGf7+6+v5v1XVos1wHKNCIKT2KUWlavjr08q8auUMHt5iuen+jMtW7eDOdTn9gznWJ2gj1eSF4mLRUEsAL+S7dyvU7W7HPKqJ7OXgoNot0STtmZYq3nHaLF7/zGmQibT2nuW2+3ul+PtmQSCXkKhIgi/9U8wx78Fo0fKQznONNaaEIMgXWUjysf246z+M2XBdQ2Z4NpapG3u2whXW7G0vJi4AACAASURBVHB8+JsbueK+XMQLp4yPB8oQekBklEuGAzo0hy5IuG8zbOitRnndMWw1yTMQT0CuDEcuTikbxZoNQ+wcNFjnMRLL3UP3YgyXGPNPpNSyqhwl38kbn5Xw9hceQIeWZ1iKCiJvjfdlOGYw4g9HhEDxkZvAUW9CL381Wkqq5f832JgagiDa5yFz2OHu/Bbmjm8EhbLhET0IDbaLJmm6Osl5YOdM3vHF1dy9UdTIpvJT3WEkRu4cuS+F1sTyihPhr+Aaj2NUCITOjEqqWIoW8FLyKPLKxYNVfDhT93AVJ0HmMl58TJkPvvZAuks5eQg9uUBUvYv2HpWxW+BgEUrK0zb0ivNw81ZQCnmyjbdPpoQgFO7bWg76pquwV70fLYp2xhYa+o2HYwts+aldomSjK+mIVxriN7drPvr9jTy83UpdQxDEGf90tCder4QfbBDjKdzd8nITl7f8JV0H4xgdAuF5IGWLtdbZ4qGRbo3iaSy06yc7yl8Lb2kd2n0/dWkXH3vTbOa3hVhDzc4yN5FVnuy5jQ7bePTkIyBqntXOOSQnfQzfPZ9U2sI34HttSgjCo8w1uImh376VdKAPkgxl05rYyOQbNV6xMRAQOdyf3ljl49/bxAA5RpIEA0lowDuwMSBvvVmKaJZTZM5y7HzFh1+7mCMXisdIPByRELTehhjdipVz2LkrSE54H64sbeI7GtGBIEqmo9GMGx1IIzraVhm46v2UNt2ETzJMIAgj+mU8qEURCMlpBr58Wc6Xfr6eLMSv46Zp0e0wIcsWr4GizDS9nU+99TCefoh4hkrk1pFORH7shKwinnSqEHB5BXPEWajD3xREvXRSarg+DILd1BMEie+t+jL6ru/hE5FbLbTI4ogIPB4CQmnFvZ85xad+2st/XLkrFLpJ/bsku42jLE40QssgsLsBk/ybPIMOaPO886WzedmKDrTyKOkGKlLaMYLUMrtirAu14tk84QP4Rc/C5BrSPStsxnrWyf/dlBOEkBG+9nLcjR/BD3iStiz0Xo8jIvBECIjSgOgNbOhL+OC3H+KyO6Gc5uS20C6QB3ocEYGRIyC5BSKylOFUSqLhL5/XxZuf34WuJDVl70g9R45nCx4Z2sRKJ09FXuomXXkBrnsZSe7wWo+pEdxUo1gXBMFvv4fs6veS9vfjTRRNmupNUffXD+2axW2XhtK4+7aXeM/Ft3PL+g7Ksn+CFyGSzLq3Yx1N0DpFSfaVUWSZ5fQT2/m7M+bR7TwqzeN+qiNb1edUxPXtcUp6tVTws56EefoFoMtoqdhTJuYgjMVwQd5kaDv5DR8l3XgruZbM9BhiGAuWLfObkDYT2vZgpdQsUVz/QMb5/76Be7ckaDJUA5YUtYz96nGhQenOkruEU49I+NAZ85g7rYL3XXg1FJ9J9WizupqT9IgRdWVpUZ6hD38d+sg/L0TWJLFVnkcN+Fqbeg9CEE3K8Ku/gr7r37FJZ+jfFkdE4PERUKEJj/bVEFJIkhKZrXDp6pz3fWM9OSkmCNmIyl0Syg/jiAg8FgFjNLl05pReD6EVR8JRC+City5g4TSPtaLaWAVpzNWAD/do8clFQJ430i9EpynmpI+ie44PSqyPtIBvwD005QRBuEAmOuwP/R/c+D4Ms/BRy35yd3aDXy2EG+Rhrwzf/t0uPv/zTQz6MsqJvKmK3oQGt++ETL/Q0w4tpOUrT5syc6dnfOjMBaxcpsNXXxwRgZEjID1D8qI1fOd8zMrPotpnjfzndXrk1BMECpUyvfMBqle+k/JQf0joiCMiMHIEJEM4wfkMmxo+//OdfOvXW6j4TvADqAnp2zDy2cUj6w+BkFMecspynDLMLFve/6rFvPAYUUYsk+hCwTGOiMBIEQgNmVyGm/8nqBXnYpL2kf60bo+beoIgJWs+BztALomKG1fjk6mTVa1bS8WJPS4CSjKEQ6awtN7N2ZkZzv/eFv77DxVSY0PpYxwRgUcjULR1clqFh/rfvmw2r/+TblxWSD6LjHIcEYGRI+CR55DLcvxR5+APexWlKZWCH/nMn+jIKScIwcXnqiF2o+75d9yqr6F0JAjjY94WOUt4oNfyViTtwHju31biA/92O9et7QjteG2Q9y66/sURERDKmEvugU5548ou/uolB9DmB/FKKmOG90gklnGnjAyB4VwDlZbhKeeh5xyLJnoQRobePo6S9s/SpMX0Xk925ccx+c4omzsuyLbmSUQcVLr/3bFtOn//jbu49SFHKpxThG5itllrborHrFr8A3nVctrxJd53xgLmtkfqGDfGfiLgHH7GcvRJH0B1Lgxhz0Yf9eFBQDriQeJ2kV95HnrrLaEJShwRgbEgILXIuH6StI3frra8/9/Xs2UoxbhBcS9EL8JYQG2y30jlwrGLEz7/tqX0tA3ichFDimGFJjPzpC7HugFYejrJMe9AUwLT+O+wuiAI0g3NelHGU/g/fA53338EHfRQQxoU8aKrb1J3eoNfTDwILiife4Z8wgcvWcsPr4GOdFilM4YZGtzE+zV95T1tJc+HXreYFx9bJcukkY70XojPmf0CtoV/LHsql5blK85FHfhctGgfRIIw/jsiX/sb7A0fI8kVaOkJHwnC+KPcOmcUgZJvXLGDD1/SR1s5I3R5inkIrbMB9lippKlo7ZEq6lndji+/bQmHz8nJEbU7edZEgtCSG2M/Fr1b0d3hyj3op10A0xaJJCfaNP5+mnIPwmNtY3fej73qAyQDa7EhYSi6/fZj/7b8T+UWvfahnHM+t44h0cKJiYotuydCkqpyQQ73mEWeL75lHj0lyJQmMbvzXFsWoLjwMSMQtF3nPx1z4rl4Vap5ECJBGDOgj/dDm+3A3fBPqPW/BdJI6scd4dY6oXwUbqtqXvuptdy7NSONGhuttQH2XK1WeCf5Tgl/dmKJfzijh3KtpFHLnw1XwrQuQnHlo0Rg2IPgdYI77q/QS05DuSwouOomyKOrPw+Cy8nu+THpbRcCXUhj3zgiAmNGILRs8LznG1v52c1DpKKpG13JY4azkX8YMk+8Z2eu+cQrpnPmM7ql330jLynOfSoRcOKNKqEYCFULeuWnwz+9aGhI2f5Uzm2crl13BCHIIvTeQn7535Pm/UFzP46IwP4goI3jX/5viM/+fHMQM4mjVRGQjnuGgTznG3/Rw6mHdzwin9GqiMR17wcCte6NxvWTz3sO6Yr3oErT9uOE9ffTuiMIknHg7QDu2o+j1/8+NFCJIyIwdgQUWle4ak07f3PxfeyqSNvV+NU4djwb95eSsOqcoquU8YNzF7NkhokEoXHNWRczD7oqbhB/zDtIl78yhBaaadQfQfAuBBXUgz/F3vQ5pBdfHBGBsSIQRJNUlYcHu3njZ+7hoV6NVi7EomNL6LGi2li/U0oHt6/05JBy6qPmZXz9/x3ENC3CWXFEBMaKgMi2eqqUKZ3yMXTPCU33tqo7ghAShYSU9T+M/f17MIMbo2jSWPdv/F0NAU1/nvE3X9vKlXdWMPJikPbsorsRi2SaeJcoXOjjXLRzFs9Rxab81bPb+ZuXzMPbottnHBGBsSAg5FJbS2XO0ZRO/Bi6rbvpdlMdEgRJ/JDcxCr+hk/AusuD4E0cEYGxIaCRtIMqlot+2stXf70LS0KiRRYnj16EsYHaEL8qyhqlGVyG921k1jGzPMiFb1nGqYe4WhOvSBAawph1OEnlHc4r7LHnkC57ZVNULTwW5rojCE5cgd5iRRJ3zU9Rq/4ZpM92HBGBsSDgPFXnQy+GLYMlLv1DH7+8eh23rVNUbRtKZbWihviiGAu89f4b+bSwuae7LWfF0hJnPGMRK49MSaoVUU2q9+nH+dUzAs5hO7oxK7+I65pHGsoam+s5UncEoahFdngMavsdVK59P+nAdqTXdihJai7863n7N8ncJM4se0c693mc82zrT7j+/gq/X9XHNfdVWd9bJfeaRMQ7kfCDxZPGlr8NsgMKrVWpUFCB7InFrdeUjeLguQlPO7zMM46ezhHzS3SVqpIFjfOlmKzaIPat32la8gWnkq44P7yfTBNW3NUdQXjUZqj203/DP9G29v9Q5XItXhzDDfV7w9T/zLw3GCW9GjIqTrO213HZqiF+dGUvazbn5Lod7auUVR4U9+JoDAQkEVEeEAPO0YHhxKVtvHhlO09b3sHMTk8if+yboza9MSzS/LP0JkUdcw7uoJeTSNJzE3qk6poghC+BNb+CP3wErdKgoR91TZr/xpvIFUrHPuukNsYHj5SEtJJSwsZdjl+vGuSX1/ayap1l1xCkIZFxImcTzz0eCIiHSJIRZ3UoTjm4i+ef3MbJh5XpFI+R9ShtsNaFZnDydxwRgfFAwHUeiH7K35NPX0bJ5ygt76jmGnVNEEK5Y98m3DV/h9rxIOiQN9pcFoirmVQE5EWinQkEwQ03ApMM99q93bvLseqhKr9e1c9Vdw6ydoslV4Y0sXgrSW86hCBCJq0XjQUJh8mIL56JMmQIISiPchJiTJFuS85rcutoN5bDFpV52lGdPOPQEssWlJnWpnC5w4p9Qly41vDN+0j4JspIrXLecLNLIHIQtfD58OR34U07BhsJwlTsAalXd7d+Gb/mkhAXjs2bpsIKrXHN8IqvfWFWPWzcWeLSm3fwn1et486HU1RJYVSGdh2kpoJzkMmXgzJNmcFcL1b3VpF4cKnHqpxKZmhXQ6w4pJPTT1nAKcsTDujMUVaSSMSKMQxZL7Zrvnl4sCUyejEnfoz0wOc03xL3WFFdexAkxOBQ6M3Xk13zCZJ8a0g4iyMiMPEIiEZaDqlh086UX63awW9uHmLV2oztAxnWGYyWklw5rpZAO/GTas0rKKhmOSYpsahb8ZTlZZ53fDdPOaRMhxkKnhzJLwDJGYnCFq25SSZn1ZKMqG2FatcySqd8HN01f3IuPEVXqWuCIF8CuSQnZ71w3T+iN18nnXemCKp42VZAYFhdUXITkFJb6euusvBNun3Qsnp9zhWrqvx29Q7u2ezRWpIeY0Oxidgbkm8kyoephqMWlnjuce089YhODppt6EiL8kVlEpSziKqFhH7knzHcMxHWiOcUBKTKzmPRh52FP+INJE2eyFzXBEEeEGIMKTpT9/0HavWXIdciX0XVp6Th6y26E+OtO/4IhBcOLlQ7aNWGFclmiT4KGUhg/TbNf93Qy/ev7uPeTQ60JME5jC0j/vBhlcZC5jcSiL1ZSPAMQjNeIw21pMbA5gaSKplPKOWek5YpXvPsLk49opv2ROEyD9qE5FJJGvcuCx6cospxON9g/PdDPGNEIBAEKcEvzSR5xufIOxbUtA+aF5u6JggF7BmZN+jtt+Ou/iB6YGvRSjM8EyI5aN6tWe8rc6hyyvpex9V39PGbP1S5+cEKWwYHyatSVlcuej4ETY8YFvtjayqs0iReXvBFjwTnHGniWDSrnZOWl3jOinaOWdhGdyrUYffdXmilxBERmAIEvMLNPwX9lPOCh7EZtQ/2RLX+CYLPQzay8jnceAGs/V+cL6NTJ3oncUQEpgQBRYIPVRBSeqvotxl3bajy65uq/OLmnWzpzchVKcTETSxw2LuNhECpBJtDSWUctaSd007sZuUyz7wZinbTTvArJDk65BgUIxKEKdny8aJyN5sy6ti/xi95fkicbfaGb3VNEMLj14cq5+A+9OuvoHr9JzH5QCh5DMVq8WMi3rhThIB3FmeSsEeNRB5EOCFJ2LLD8dNrt/HDa3fxwBbI5fNYouO1NtMxz74IDAp+bSXDCQcnvHJlN6cc1s70cobNSihjcEoSEA1YhdmDZUWCMEUbvuUv67Gdi9EnfRQ3bQElIa2haqZ5R10ThPC1sEfKkbND+Gs/CJuux7ocI0lkcUQEpgSB3cx0WAdBSYvIIMAETis277L84YGM/101xLV37mDbLoXFkSoTqnNCp8EWI7jWedpSWDK7zCmHdXLqUW0cs9jQWQ6dc4uKhJqmhOQfxaTDKdnc8aLDCMgtGhq7gcuqqCNejzridUhuURDvC3kvzTvqniDsCX0mSWIP/Bh70z8HuVz5AonCaM27ORt6ZYEsSIKjZ8BqHtxe4pv/t5UfX78drdMioh74QeswBElG7DADnPOixZx2QgfzOipo5zE6xYnwVHM/axt6O7fq5AOlNyVUXkHpLjj1QvyM5Rgk9F3CRA9C/WwNqWbw/WtRV58PfffivUjmxhERqB8ECrElyBwkxoBPsa6KSQd5cIvmLV/cwLrtCdYPhC+Q4tukNUZu4akHVfnCO4+kM5cGbNMDPSrEz6SstHXIUmtYvPFXKQQhp4Shij/wTzFP+iu83LdaBzXPZs8vaigPgngMrBvA3/HvuDu/TmK6Gn8HxhU0JAKPhBWsRRpAeUma9WAkLhk6Ckrb8qIiXxzl4ikYspoPfHsz/7WqQkIeEvRUkwv7OCyJT3BaPH5w/hk9vGplO7YqxYlC+Ye9KCKLXChZStJnkJ+SLGTxFBbZRg25T+KkGxsBL2JpeQrtnXDi+SRznlyEwQKvl13a3AS/oQiCPGFyctSWVfC794LOYzedxr7/Gnf20hlQ5VSrjrSzhMkVudXY0hCJ1PLvZchD5btX9PGR/9yKUAMJj4kOQDMPWZ8RwTMNC7sV3/p/h7GwYwe5T0MZ6LCo0TBREDIQxKf8EDbpIq8MUBKS0OSx3mbeA428tkD05b6edzzmhA+i2zqbnBI82loNRRCEzTkn6na74MZPw8O/jwShke++Bp+7vODX7VRceUcvyxZ0s2xORqcpY8zeu47K8bevr3LOlzayoV9Rlm6DDY7BvqbvvQtEyHrDi56c8snXL8T4DGul0dXuFOTi34qSUUnuXL1Bs2XzZp6zYh4HlINU2r4uFf88IjDuCMgWzUXB++i/xix5UegM2ko7saEIQu6kE5/DGY/pvQN35XshH6o5eqILctzvjnjCx0VAXmS4DKvL/OKWAf71Z1tYuLCd5x+T8swjpzGjS4cOb+JWDy+3sD09VeB939jGj2/ZQZtOmr6OWjIMJFFTKkD/9vQZnHFiW+iZEEo+RRRR1FC1puoN923M+e2qPn61eoCuMpx7+mIOmT0EpCA6KC31aI4331QiUCihys1rqE6fRenkC6BjAVqZFrhndyPfUAThsRsmv+YD6IevoZp6UsmAim7IqbynWvbaKlF893f9nP/DzeSZYsHMKqef1M2LTprHsvkG4zKoOFwiYQm4bHXG27+yFi1awU380isSEFPQA8zt6OJf3j6dQ+Z1Yas53inSDhisJtxw/wD/efkGfnO7ZVt/iUUzK1z454tZsayEq8pDereGRMtusrjwSUKg6OVhtCezHuOquKPORh/62nB96dzaSpVzjU0QHvoV7qYL0X4wML1mT/iapDskXmaUCIiUlzeWr/xPH1/+VS87KwrjDLO6Mk4+tJ1Tj5rO8cs6WDDNkyY5vVknb7zwLu7YoMODqKmH96FvykuPS/jwmXPpSDX9Wc59mytcd3fO72/dxc0PZfRX5MFrmTddcf5reviTI9sgE6+BKFYWfRriiAhMBgKiZ5IHBVRH1nkwpVPej+9YjnGShdxatbgNTRDswEb8TR/FrL8NJ7qX8SEyGfdPvMZjEAiNg0jYZXMuvnQnF//3VsodGucSrGujrTzE4ukZpxxxAM8+bjrHLU/53I8387XLBh5RV2xKUCV+66WKQfOpt8zmqcs7ue6uPv7rpp3cvAa29GmqIWw4GOrJZ7bB+a9fwLMOSzGqTO6roTlTIrVkTV5v3pT2b9RFOYVKHE746eFnoo54U3izaBHqaCX3gbxRfQPrluY2w635Cf7Wz5EE40VlxUa9Jxt53vLF4U0VZUv0AR/8wUZ+fqVFl3ISVyUnwal2qtUK3eWcUw6FGT1z+MXVm8kep+KhkfF41NyVoyv1vOzUHv6weju3roVMgTFS/All46jatlD2ee7pPbzqqW0Y8RwYHZQmtUrw8uUWR0RgUhBQOJehdYJtn09y0nn47kPRUu4Y3i/NXtj4aJAbmyB4ixrYytDV76a8fS2qxdw/k3K/xIuMCgHJxN9eTfj4D9dx6Y0Z0qtwOPQVXnNKkWeWVDKjwyuyuV3nQX5ai36JJCUmKF2rR1CyckdmUzp0lbedNofXndpJm3R3NG01jYRIDEa1+eLB44CA6G5Ii/YcvfSlqKPOQScd43DexjxFAxMEj7M5Xidw/4/xt34JJVmncUQEphABJfoIVFk7oDnv29v4ze07aUvTR2YkYkpKtN1rwkHNr/8jVQpSteBwdrfuQajt0CKOpHnb82Zy9jO70K6CkoexkITY0WoKd3ErX9qjnSFPy5iTzoeeE8IebdXRwARB+sdLfbRDV/qw170ftfXOWowo5iO06oae6nVLQp0nxXjHPb2W876xkZvXinvSo72oB8p3s8cpcbE3dxVDsEWtvDNIKQuZr/1/+Ye0X3jNyR28+6WzmCZeBlFM1Apnba3CY6qtGa/fagiIv8/bHL3oedjj34mR9s66dUPXDU0QQqtnVUjaunt/iL31S0WNtc6RL7k4IgKTj4BHKXkRuuAluH2954Pf3chND2eUg7SwdHIsIpmt1KhpmCsYDJmoQVh4yYou3vXSOcztzINMtdSeB7mk8O+Tb7l4xdZEQO5DCYWF3grSXTydiX7KP8ABR4bcWCltbNXR0ARhT6O5XWsZvP7vaN+yHlcykn3ZqjaN664jBKQR0Q3rMv7ui5t5qGoxSrdsT6Lgui31Y7M2nntMBxe+fjZlnZFZE3IygvhUHBGBSUZAqHoulQuSLiPflYtfiDr+b0IVUtLi1TPNQxBsBX/ff+BXfyXUoEtzmDgiAlOBwJ55zsJTRR388rsG+NB3drJ+Z7V1K/aUVCwYVh7cxnmv72Zpt8HVOlp6J3kHkSBMxX5t9WuGXWcMKh/CleeiVrwXO+cEktAsrLWklR+7F5qGINhaRUN2/d+Tbrsb38JuoVa/4etl/fLgCYIr3oAhSAh/7AebWL8zwYSXoQgvN7f7Mrz0RSZZGaq55riF8MGz5nF4j5Qv2pBzEDo9SwVS9PrVy9ZtuXl4yQmqWvwhL0cfdQ6knWgvHVeFILQucW0agiBtZa1IWaz5CfbWLweJzDgiAnWDgHgStOL7Vw7wyR9uo6KG0L4ckhebeigfYrveaQ6Zm3Phmw/l0HkVbGZRLZwd3tQ2b7DF2SB0pvBJG/rkj6B7TmhhSvBo4zUNQZCvlMxpdGUT/qZPojbf0mDbNE632RGQWOeQ13zzigH+9ecb6ctN84cblCZ3moNmDPC+Vy3h1MMNyhbOghhSaPYd3xjr81iUK8Ehz4cj3oFKSlHau2a6piEIInerfJWKT0gf+C+45bNSSFUToollj41xqzb7LIvi/mri+NdLB/nX/90akqPCNpXkqCZyJoRueMICLHS2VfjIGw7hmYcVC0y8CwmJusUTwJp9tzfG+qSCweC6elAnfwrXOY9U/AchWzGOpiEIhSldcGeq6jaq136IZOuNWLpI/QBOSs/iiAhMIQIFTTV4W6XPaz794x1896qtpD5FJzW9xQYnCaLxEBorifK5U0wrwfv/bCYvOXkmriKt2YsHb+tGdadwA8ZLD38Xh/tQmoOJZolnEHfomzCHnxWKj2Poa/dGaTKCMLwwR7buaux1H0f7PrRuQ0nL3TgiAlOIgLz7RWhY5Q5lLJsGNBf9dDs/uWFn0H5v4LYoj0JV1uFI6EirvPNFPZzxtBmUbR+oUhQ4mML9Fy+9GwEnTcJ0inKD5N2Hkqx4H3b68kAXoghHkxOE8CB2Q7ibPoN68FIsJYwEPuOICEwxApKT6ENIwaCNZ5vN+MDXt3HZ7ZWis2ODexDk68uJk2Con7NfMI9znjODriTHyqPX5UXVQhwRgSlEIOzAUF1jcZnFHPd2WPZKacdEGvZnDC8Mm6cpPQiijBXaMmy7kez6f8T0bUQnpVpOgoQaYs+GKbw/W/vSITafBxen8x7Zjfds9/zDtzdww5qMNCnEmK2XSGhjkFrRN5JSsILfeEoGznhqN+962TTKshaXhDvOSDJYrFxo7f1fF6uXPj7CxHPynidTPvEDqPY5xf0WNnMkCE1NEOQxZYUh2EH8HV/F3fYddGl6YIzSeCNI3MYPmbq4VVt6ElL6KI3KdZXbN3jO+94mVj0oLY4ztBCJBviSCeEEBSUNVuRqM83pT+vknS/uYrYxeNGujYS8pbd5vS2+8DA7KM9An/BO1LxTY9XC4xipKT0I8v73ZAwpR3nHA+RXv4+kbzO5xJxEDV+8S5Eh1Nt923rz8Zbcp6RGPJ4Zd29N+Kt/eYA1vdNI3HZ8QyTWyhdXHmRpqzk881DNJ89ZwGyf4NqEk1djX5TW29n1veLQKSyjevDzKB31biilmIa41yYf1qYkCIEhhlIqcRRY1P0/J1v1zyTWYoM7NKSKTT7a8YoRgccg4J1HGYP2Hqstv7s95yPf38hDOyBVsk9N6Fhab2O4cFg8spLwleqUlYcaPnjWfOYmDp+k2GyQxMTqoXqzXevOpygzlndCXp6BWnEezDqOVDaxfDXG8UcINCVBkFUOd+jy8pDN+smuOx+z4SasFulMiQHHOFO8H6YWgceqcygHmYZf3Zbx0UvWs6Xfo6zGhBJIVz+k1nu8kjuoCC/kLuGExY7zz1zI4XOlXa7CaxGfkVrHqcU4Xj0iULwPJPXQFPk/SmGX/xn6sDegTBq6r0bRrr3vk6YlCHsuN5No7oOXY1d/kiQbxOUapevvqyzeyhEB76qYUsLPbnB89Adb2JLvot2VcdLxSRhEHQzvFIncPxqqTrFouuMzb13GsfMqZHmCMQ1eilEHGMcpjC8CTnJ6rGT8OPz0ZeinfxJbmkVCHrQQYp+wFiYIlgyGBshXfR5z/6VoUwrJqnFEBOoJAamwsiL0pWAoy7nk8n4u+uVOhkLDp/pSAzXSmdElLJ8DpkXGbQAAIABJREFU550xhxMP1ngv3jlJSmyM6ot6sn2cy0QjIA98hzcdqGPfhlpyWshD0JJ7ENhBfCHszQIt4UGQfASpcTXb7ia/7h/QgxuDaIvSnhADnui9Gc8fEdgnAtKPXoV4vrjtE68YxPO13+zgi7/chtIllJMyLHmWTX5egjYK64r5JUpTzXPmdXnOP3MBzzoyDSWb1hlKWvx1Me9gn+aOB0wqAqLqKdo4atEzyI97F6btgJDdgw+Sn1H74HGs0RIEwQWPpw1xU3/v92H1N1B5JSSmiCa8JC3GERGYegR2ewmkfFBrTaYU//STbVxyeR9DVpGIPGwQeZnc2UqipNwpoecJhjajOP/VB/CSJ3dM7kTi1SICY0AgaIuY6SQnfwA3+wRM1DoYEYotQRCKutcMpwymugN746fRG68o+jZEac0RbZR40GQjIORVesZU2TLYxoU/3cJ/XLEZU+pCB3/Y5Pm9HqlYEM0DbZjZ5vjrP53FGSd1hVyeZu9YPdmWj9cbbwQKeiu9Fjj01cEDF0ILcewTgZYgCMNdHZ24aIUSbLwObvgoVIcIT7fJe9bu0yDxgIhAQEAaITpPakyoYNgw4DjvO5u58o5qsWcnddMWRcFOOtxVK/z1i3t487O6MF7hjcNITCSOiEC9IiAl7z0noE98L758QLh9RDAvjn0j0CIEoXigitu2iDYMkK/+Kvq+/8Ar6f09yf7afdslHhERqCEgsVOpGHBsHOrkI9++j8tuhyTxRXMneUkHjeNx3sOPSusuriU04XUr2/jLF89huvbkkjwppGGcLx1NHxHYfwRkzxqUz6DtAPST3w3zVwaPcVTBGTm6LUIQHg2IJFSpygYq1/wjZutNaC19GuKICNQvAqHXgXGs3pjy0W/fw3UPGBKtSYz0bZiAR94eToGgeeDgrKd3cfYLpzMjEbWx6DWo390SZxY8bNI4LO9DH/Jq9OFvRIncfhyjQqAlCYJ8kVml0Rt+j7vpIlR1+6hAiwdHBCYbgZBKG8qyHHf2Tucvv7CKB3eVQVsSb8b/K36P97+1nucdW+YjZ86n25RwZhfKp5MNQbxeRGDkCNRUdKvti0hXfhi6lkaxxJGj98iRrUkQJCYVQg2DcPvX8ff+KKQpeB0FmMewh+JPJgUBSbRK0D5Ha8+198P5313Pmm226KQolVrhq358/P2iOperPJz3uIPa+cTrZrOo22GSBCd65XUo/zwpZogXqVsEwq6UXuqq6IjqkmmY49+Fm39qUOeInURHb7qWJAh7wuR33Ut23QWY7XfgTQklGyyOiEAdI+CdZM3k/O9dFT7yna1sGwqv8/AAzDKHGQddeaVzbK45aWk7n3zzLOZ2iEytgDLZCZJ1bIg4tbpCQIiyJPYWsskOtexFcNRfFhoitZbkdTXhBphMyxOEkI+w8Qqyaz6Odv2A6HI3gOXiFFsWAadztC3jSzk/u7bCh7+3gT5XJvHVornTONQdDqE5aqbmgnPmcuRMi9UxpNCyG65RFh7qglPIB2HGIagT/x7XtRStpCxYx8qFMdix5QmCFeU6n6FWfx113w+j63QMmyj+ZHIRkC+kzIn8soIUvntFH1/85XZ2DkpFg6gt7g/DFTEkz9JZhvefOYenHmTweYI2UT55cq0crzZaBEQxN1SrmRL6+L+F+aeidSLtRlFSbRO//EYLKS1PEPAO6yxmaAv2ho/DltuCUp1RBot8kcV62VHvqviDiUVACIAq8mjErVrx8PXLtnPhT7eRpGkIk4lCqCgxjjgnQSolqWJpZ/EM+NQbZnPckjJBona/ScfEwhHPHhEQBArhuwyWvwpz5JvAtNXUQmJYbKw7pOUJglTFeiuCSSl2/TXk132Eku9HqbLILxaytnFEBOoYAa8cg9Zw0c+2893Ld4Q6b2lEgy7XCMK+ExflPnC+xKy2ft57xhxedNxMlN+t2Bg0F+KICNQ1Ajn2gONJn/JefNuc2qddfH7vj8kiQZAchEAE5Flqsfd8B3/H91C2glKS+xofjPuzweJvJx4BqxIMg/TZDi768Qa+d1U/Lvy3PHgS9j186CI5PbW8++XzeelTypS9RWnZ/8WIBGHfKMYjphABkQGXBkzHvRPfczI6Ed+aeNBGsv+ncN51fulIEMSDIA2bvDTB0WR+gPT6j+HXX4VzCmnBK19k8oUlDqw4IgL1hoDk0OR0kKh+eisdfOyStfzshpxSSXbsE+QOyN52Qo5LdOiM/3f6HF77VI2tltGpQu/hNYgEod6sHudTEFdRHhelUY0+6izc8tegpTuflmTz3QQ3ojU2BFqeIDwWNknQYvsq3HWfQPetwxuNcjro4atJ18Afm1Hjr1oXAdmj67Yb/uE767ny3koguI/3FVV0hZSHK5zzjGmc87yZlBJRTczDAzc2Qm/dfdQQK5fuvDYwBOyi51A+/h1golrieNouEoQ/YggW+R4zD15KftO/oOmX5raha52TltEjctmOp4niuSICo0HAh6zttX2Gv/vmRv5wf1Yjtn98DtnKNve8bEUb576ihxlthcDMsF59dM+OBvd47OQjUISHsxmHhtAC3UeSxJzycTVDJAiPgVNIgPitvM/xq78B93wfpX0tm3tcsY8niwiMOwKSMSMeVpU6PnzJdn5w1cDjEgTxlhkMF5w1h9OO1+RDmqSU4pyILhXNzeKICNQfAjUhJA9DLqF00ntgwTPR0jMktnEeV3NFgvBHBMEHOVurUtTAJvxNF8LGa2sFZSLHPK74x5NFBMYXAUnWUpJTo/j0z7fx9d/2PUH5tw4lvl84ex7PPbqEzYqmT+F/Q2giEoTxNU482/4joLAqJ3Elcq3Qy1+BOvRMfNKJUeL9Svb/EvEMjyAQCcITbQapaui9A3fDx0m2P4xL5akZGUK8f+oXASEGVlm0Svn8f23h4l/1hwTbvY0gTest//y2RTzzUCORiTgiAnWNgJBX7dLQMMzOex6lE95FbjpJAjmISYnjbbxIEJ4AUcnfyr0leegy7C3/iOjFxEKG8d6C8XzjioCHHEdqUi6+bDuf+/n2x/cDiCAYli+/bSGnLE9C1U70GoyrNeLJxhkBCf3qqmGw52BKx59L0r28SLRVGu+15NbGMY4IRILwRAQBh7eSnOjQd38Hf/clKDuExaBD+VjcjeO4F+OpxgEBSRuQ/WoSwzd/388//XhryEl4vFHWjq+9YyHHLUnCczaOiEDdIuAlL6ZK3jaD5Envxs89hdToUJ4uvU6LMvT4TB5P+0WC8IRoypPVI93zGNqKXf1F3AOXYpJ2PNJmN27G8dyM8Vz7j0BQo/cO2bI/uXqQD/1oG/ZxXvySpNiVGC752zksPaA0Lk2e9n8F8QwRgUcjIE9hoxO8tbgkwR/2BpLlpwf9jqKMN46JQiAShH0iKxUNPkguu+33Yq+/gHTHKqzpQHhrHBGBekIgqM5LoqKGX944wHnf30ZVFJP3MsSzML1N8YO/ncuB3aXHzVWop/XFubQaAi4k3RorPgLwy19GcuQbcGYGOuQdxI+0idwRkSA8AbrF619KHKVBnmxQj9p2M+6mi9C7HsJHpa6J3Jvx3GNAIBAE2a8G/veWAd7/va0MVR+fIMzsUHz/3Dks6hAPwhguGH8SEZhQBKSLmMJlg+gFJ6OO/Wv89INQ5ChpzqQiQZhI+CNBGAm6tWZg1rtQa+sf+h/czV/AuEFyqSWv5XZFf8JIwIzHTCQCUrGgnMdqzVV3V3nn1zcxUPFoLeIIwnd3swDxIMydZvjRuXOYWU4DCY4cYSKtE889EgQkuyuV56wTAuBwNifvPpjSiedC92G1knMRrTOxg/NIAN2PYyJBGA14EmoQIZp8F+ruS3B3fg+tMzKXYqT2PIYcRoNmPHYCEAgEwXtyrbnpvox3fHUTuwbd4xKEBTMSfvJ3c+hMTeAOkSBMgFHiKUeHgHfY0K48Ce2bfXk2+sl/hZ+zEq2ENMRdOjpAx350JAijwU5iu64KOkVXNlFd9U146H9IRIY59CKPPoTRwBmPnRgEpGVIpjWrH6rw9os309tv90oQpOJh0ayEn5w7hzYJl8Xn7sQYJJ51VAgER5c0X8or2GQ6HP0G/JIXo00JE56xUe9gVIDux8GRIIwCPC/Z4d6HzFmrNGZoE/a6T6C23oL8WYyHjQLMeOiEICB+LHmGZgbufrjCW7+8ha279k4QnFcc1KP5yXvnUnKFByGOiMCUIyBJNNIVJFfoZS/CH/0XaGPAW9BtMS1xEg0UCcIYwQ4FkBJy2H4b9g9fwGy7Da+SkKPgvI1kYYy4xp/tPwLOGYyucPdmOPtLG9jcJyIysidryTS1S4hy4pMPKvH1v5xHSYeC3uhE2H/44xn2E4GcEkZn+MUvIDnyz1Hlmft5xvjzsSIQCcJYkQveBBGlsajNN4WeDXpgHUq3k7sKWkc32Fihjb/bPwTEM2B0zoNbFW/64nrW7xKBmYIgiBTz8BCCsGJ5ia//xbzgtI0EYf9wj78eJwSqO8kOfAHlY/8C1z4/5HfFMTUIRIIwVty9FD06ci9fawol7aFXfRWTbcE5Hz0IY8U1/m6/ECj6Kzi08WzaoTnr8+tY2yverj/2IIiA0kmHpvzbX86DTMUqhv1CPv54fBBwuGkHkRz/AZixAHwZFfWTxwfaMZwlEoQxgCY/CemIvnDJBhElO4hf81/kd3yJUtURRMGdC3HdIjs8suAxQh1/NkoEnBOCANv7NG/80nru2ujRUjcu0l4hzFAM8YA948gSXz5nLrYqHRxjku0ooY6HjwMCoTZM2imgcTMWkRz3Xpi5DHyK0qLyFTs0jgPMYzpFJAhjgu2PfyTuWu/6sHd8F+6+hEQSGZ00D5GEmyLpJo6IwMQjUDxshQj0VxRvuXgjNz9oSSQUFjTr9yAIDp5/XBuffXMPNpMqnNiMYeLtE6/wRwh4Dbkin1EiOfpD6PnHxw+qOtkmkSCMkyG8c+TaYqqW/K6LUff9mMRlONrCgzd+m40T0PE0T4yA6CGFRNmcIWt421c2cs1dFRJhrMHrtfvn1nlOW9HJhW+Yhc1U0E+IIyIw6Qh4S9aWkBxxLn7xM2rljJM+i3jBvSAQCcI4bQspf5QmOVY71GAv/vZv4e//SRD7KAIMtZ4OopcQ1UHHCfV4mr0hIK5a6zJylfCOr23kt6sGSdMivKBCS+diWOd4+VOn84kzZ2Iz6eEQ8YwITCYC4urSuPI0zBFvwi5+QUjuNiqJDtfJNMMTXCsShAkwRHjOVraQ3/wZePAytGkn05A4i/IJmPgkngDY4yn3QEDyELxOeM+3NvGLGzPKSRWJ5kqj8uHhveLNfzKNv33pDKyVZ3Lcl3ETTQ4CkpdlXI417ejD34Be/koIH1Nx1BMCkSBMgDUkzmtFUKmyifzGi9AbrguZuJLMiKuiYpOnCUA9nnJPBIQgYBL+4ZLN/ODKIUqpRZwHeo8yR+/g7OdO510v6sbmUSo87qDJQ0B5izXTUIc8F7XsLEype4+Lx3ytybPEE18pEoQJsUQogMT6BL3rPvJb/oVk47UgamASX4ix3glBPZ50NwJCEJRJ+MSPt/Jvl+0KIYYQQ9jDSSDluH/xwhn8zQs7ybNUcsgjhBGBSUHA+zL+iNMwS1+PTzsxj4q7RoIwKUYYwUUiQRgBSGM5pKg7l1Iyje6/l8EbPoXZcjteYmxBrtkESfHQlCQShrFAHH/zBAiIyqfI0170y2184dI+ykZKbwsZ5uEhIYZ3vaSbtz5rGnkew75xQ00gAl7KaB3eeZw2+IOfT3LkOeTpNFLJ34qJWRMI/thPHQnC2LEb8S9DD4cd92JvvQiz9c5Qb26dwhiNk7yEEZ8pHhgR2DcCQXOj1pnxX3+1nY//bBftSY6oIeypxyHJjO/7s+m8/pSZ2FyyFONO3De68YixIBAUZ30Symz90heQHvZGVHl2oRMTdmbM3B4LrhP9m0gQJhphqSyz0n7XYrbfQ3br5zEbb0GlCdaZ0AkyKuBPghFa8BJaK757+U7e/4Ne2kP+lzyEd7sQRAH0/Wd0c+aKadiYn9iCO2QSl+yVBF0xBz4fdfRfQLk7dGYUsS4py43UdBJtMYpLRYIwCrDGeqgT6VscTm6DHXfhbrgItfPekLSovPh2a3kJ8QturBDH3+2BgDxwZSit+Ol1u3jnt7bQZnQIa8mX3PBIDJz36pm88riuUOEQH9JxG40/AkWDMAl5ceDzUEe9JTRfCqqdTjqAKJR+dBOx8Z9DPONYEYgEYazIjep3khxWaN1LgqLdthru+Cpq0414VcYiBCJHSwlkfEqPCtl48OMjIAThslv7ePtXezFadDhCGcMjP0iN5oLXzeQFx0zH+ixShLiZxhcBZVA+I9dl9MKnYw5/C3TMASUkVcJdw2GFSBDGF/jxO1skCOOH5YjOJPkI8jc778Ld/GnUprtR5TJOvAh2CCWZi9GTMCIs40FPjIBsqavuHuTsf94aDrQS692DgJZTzafPmsWzj+gILcpjqCvuqPFDQD6GJK9lGnbJn6CPeTsq6ULKG4UahHBX/BgaP7gn6EyRIEwQsI972iCVX8V7g+pdE5o7JZtuCmk6IeQQxWom2yJNez0hCH9Ym3HWRZuCLkeOw+zxVG4rKT7zptmcurwtNntu2l0wVQsTj1WKW/psksP+nLw8g1LYZdLATnZhQRPiqG8EIkGYdPuEPN5aQx2F2iWJi1/DbPg9mHJNltkh0s3yRaejN2HSLdQsF5Stc9fmnDMueJiKSHxLZcMeyYidZc0X3jKXEw+SJk7xgd0sdp+qdQTPqBetTkNeMuhDX4k+6KW4dAaJPM8CMZCsRJlhpAdTZafRXDcShNGgNQHHBrfv4MPk134GNl0FSSdaJSEnwUvdcMwunwDUW+OUQgge2O44/RP305elSNXCnhtqervmy2cv4EkHOqxLYrvn1tgWE7jKFO+HsCWHPuhNpEe8DnRa7LnATGMp4wSCPyGnjgRhQmAd+UlFUCkXzl3ZiF31NfTa36BdBatLsf3uyGGMR+4FASEIG/p88CBs7pdmC/J1t5txdndqLj57HscsFMevOICjkmLcSGNHQCqyXGkWLH8Z/uCXkKTdj0mnil6DsaM7Nb+MBGFqcH/kqlLBoJzDKo0e3AR3fY/8vh+S6tLuyodwtNxc0Z0wxeZqqMtLKdm2QcWrP72etb3VUCtj9nhGz5ymufit8zhqPjgnFTRCEOJDvKGMXBeTlXwDDW0z0Ee8jnyRdGUskYSYllQsiOdKkq/rYrJxEqNAIBKEUYA1cYcO1wqDz3eR3/0N1N2/QJOhnNSu50GrXCSVIkmYOCs025nleTxkDa+68EHu3ACJsUWpY23Mn5lw8dk9LOsx2JCjEAlos+2B8V7PsMbG8HmtdWiVk7fNpXTsW1ELnh0qsmIwYbyRn5rzRYIwNbg/zlUducTrsgrc9wPsPT8irezCChPXMY2srkzVAJMRKpChefVn1rJqrSORfgx7JQhJUFKM+bANYNQ6mOKejgArInDTD0Uf+RryuacUns84mgaBSBDqyZRSOuxycmNRwswf+hXZbf9GUtlM7nRIMnssg6+n6ce51BsCHmc0r/3sem68L6OUPLqR6G4PQiQI9Wa5ep3Po54/LsfPPBx3zDvhgINJJNFVOtbG0TQIRIJQR6YMDl7vQsKvDerLHr3uMvLV38L0rUHpMl47sEIUiiYncUQEHh8Bj08Ur//8Jq67u0IpqakpPhJiSLn4rbM5eHZSJJrHGHHcTHtBIDyHVFF27ZUuChJkr8w4HJ70/1DTlxTKiEH7KAYXmmkTRYJQx9aURibiUVBbb6Ryx7fRW28mQVTvPOhKqDeOIyLwRAh4o3nDFzZwjRAEUzzkh8f8GUIQeji4p9DEL6oYIkuIO2pvCMiLX6FyKWNMYOGfoo94A7qjJ+6YJt4wkSDUsXGlBNKHhiYWX1mHu+mf8ZuvoGQc1awc9PXjiAhEghD3wIQhIAqczmOSBG0HsLoNtfy16ENfgUunI4otkSFMGPpTfuJIEKbcBI8/AedytNY4SSxTCt+3HnfPd1Br/wed2dD8Sb4IozxzHRtxiqcWPQhTbICGvXwtjiDOSp3gqeDK83CHnEGy5Pk4nWKURylJSoxep4Y18z4mHglCQ1i2IAISWtDVHbiHLkXddQkM9eJMCSQMEe/RhrDkZE8yEoTJRrzxrycfHBLFdKF4SuFthp25nOTwN6DmnoRKSqjQnXaYGsSHT+Nbfe8riAShkSzrbahX91qRrLsce8uX0IP3kOmZaG+jJ6GRbDlJc40EYZKAbqbLCDOQxnEmx+eefM7RlI55N3b6EpSyGNJmWm1cyxMgEAlCA22P0LdBGqJIsYP8s3c19q5/R2+8obaKyOQbyJyTMtVIECYF5ua6SBBtzclMJ+mBL4Tlp+Pb5wXpd0MSWyo0l7WfcDWRIDSUsS2IpKk0TVUgVQ56aAP+ru/Dml8EkUVp6qt9ijfS3LdQz43aCQ1l5HGdbCQI4wpnc55MSlytI0vByF/OkbX1YA5/FX7hs1BpF3pYilvHrp/NuQliiKHJ7FqoIIRYYNaHe+BnuNu/hckzciXJjQYlNcs2LzwOMUmhyew/suVEgjAynFr9KCeJhrnCmBymL0Ud/WaYuxLnXNEFNCYituQWiR6EBja78+JREKeCxucZatP1uLu/jd6yOlQ/oBPCMWHE8EMDm3rMU48EYczQtdQPJeHQY9ALn4la+nL8jEPQSnp/uuJDIz4/Wmo/DC82EoRGNrvkIVgFxmFdHsIOpm8dfvXXUJuuxlUrKOnHXmicxNGCCESC0IJGH+2SRW/FTIMjXo0+6DS87kQrg/IeJyEFSVgc7Tnj8U2BQCQIjWzGYZ2koIfgHyk98pV+7H0/wt/zw1AWqYxIMycoJ98DEnBs5EXHuY8GgUgQRoNWsx8rL3oHzoQSRadySXvGdC3GH/kWkjkn4JI2VPA6JkVVVAxNNvumeML1RYLQhOYPHSHzAdSGW1BrvondeltoFy1aCtb78O9xtAYCkSC0hp1HskrpqRBe/SK6JuqsqoSa9wz84a/BTF8SQgqEsKWBkHcQR6sjEAlCM+4AK18HNkQfksEB/F0Xk9//K0oMYqVMKdQ3xNEKCESC0ApWHskaPUqbEG30toorTccf+Wb8gc9D047Wooo43ABOvAdxRAQkCV5oZRxNhYCUPwb3oHwMSAe/rA/W/h/2nv8k6V8Xqh+KtjyFUHMczYtAJAjNa9t9r6zwFMgtrsQrIKFIr3GzjsEc9mp0zwn4IIcoxxi0iLAFz4L0ZIxexn3j2/xHRILQ/DYObaO9z2HHnfh7f0L20G9JGMJSwghJiByhaXdBJAhNa9p9LkzyjZw1pFrh1BCuNBu9+MVw8HPRnfNDImIxhvs37/OU8YAWQyAShFYwuJMURovVCSbfhbv/F9g7vkOS9YY4ZBzNi0AkCM1r232vTKN9lYr1+BmHUTr6LNy8p4U0g5J8FMQ8g31D2OJHRILQAhtAZJmVlEGGzpCSt+xh6y3k9/wIs/kGcFkNhWFXQvyiaJZtEQlCs1hy5Oso7l4fVFRt+yz84mdiDjwNuhaF3CTJRFCIkFp0HY4c1dY8MhKElrF70RFyOPsgtGur9OLX/gq/5qf4vgfwvoTSCu/lISLqizEO2ejbIxKERrfgvuYvIUJhAglWuxBOdN5hJLdg1pGYw1+HnvVkbFJGi55ByDmIHwD7QjX+eYFAJAgtvBPkMZF7R9K7CnfXD1AbL8e5Ij1JEpWGKUULQ9TwS48EoeFN+IQLECdA5qV0UePkxW8tSTKN7OAXo5edBu1zRUctqCHGZKPm3gsTsbpIECYC1YY5Z5G8KEEHqr349b/H3fdL2H5vaB/tdRKfKQ1jy71PNBKEBjfgSKavkqB74nUHeu4xuKWvQB/wJFTSEXKPJNUgBBaiIuJI0IzH7IFAJAgtvB3EgyAtpI3PQpmTlS+NgfuDAqO9/9do24fRbSE04clQNXW1oMYoBZIxhFn3uycShLo30Zgm6KRQ2YtegfRKsNhSD8myl+OWvhiddIY71jlVkIJwowY3QtRcHxParfujSBBa1/Z7XXmQxfAZbv3l5Pf8GN17G1pKJENJVAKS8BhinRG4RkAgEoRGsNLI51iIqichV4hMShenoeasQC9/Ocw8AqNjVdLI0YxH7guBSBD2hVCL/blztqazqGBwPW7tr+HB/8XsehClpZeDCeSgqJCKLoR63x6RINS7hUY7Pw+hMZvG9zwZs+SF6DlPIStNQ0s+kTRniyMiME4IRIIwTkA2x2nEe1B8o4hLMvMGLW7KgQewd38ff///YBhCldvxuai6DxME+Wd0KdTjHogEoR6tMtY5FfdnVp4Nh7yY8uIX4Es94V5VKodaFdJYzx5/FxF4LAKRIMQ9sQcC8gAKj5vw7tfy76FTpMJUd+G3XEd+/y9gy+1oO4BXBq8NxlZrJZHRo1Bv2ykShHqzyMjmE9RPAwUX1RK5Ix1KiMG8E+Dgl2BmHIELkshFd0a5X72K0ukjQzceNVIEIkEYKVItfpw8rkRkSQ1sJN90Faz5BWrrXWhjcKodraotjlB9Lj8ShPq0yxPNKvRH8GB0jpUW7cqgFjwNc9ALcQccQ5J27vHzSMobz8KNM+NIEBrHVlM70+Dd9Dido12Cz7Zg7/0p7t5fkFbX4U1HzEmYWgvt9eqRINShUfYxJe8sRjkyVUJ3LUIf9hqYtxKnyxhx7mnpyDo8IkFoPAs3zowjQWgcW03pTENmgngQ5NNGiILItUp55M578A/+Br/hShhai3Iis5TiyAnaLK4IV8Qx+QiEXn7a8MYvrue6uyukprDb8FgwM+His3tY0pMWdo1NeybfSDXcRbU03Ds+w5sUPX0pbuGpsGAlpnNhoVXiLUqJNklUOJ0CQ7XkJSNBaEmz7++ii4TEIuIp6m1jAWHRAAAOhUlEQVRDuN67sA9cSv7w70izLWjTSWZTnKpQ0vGBtr+Ij+X3BUFIef0X1nPDvVXSBJzLHznVvBklvvK2OSyZkQRBHSOfp5HNjQXqUf/GSU92r1C1e0O5Ck45bMeBpEueiz7w2dA+BwIhkBLjyLJHDXL8wX4jEAnCfkMYTxAkm53HOIffdi1uzc9RG29F5zuRNvTF/8Qx+QgIQShx9pfu5+p7MspGKMNusrZwpuFLb13IkgMszouojswwvogmxU5SpmhztBYBoxK2NAu3+GTSJc/Hdx0SEoDlj8Kfh84ocUQEJh+BSBAmH/OmvKK1Iqbkg6CSquyCXbcUaowb/gD5NgmcxpfPFFjea80N9w+xtd+HF44PL5zC/9OWJKxYUqYzdchxUf1qEg3kwtufSudCknmnYBY8FTXjsBBCEKVSIWtC5qROIXZdnES7xEs9CoFIEOKGGBcEQn6CZF/rIAIbgg8qH8TtuAt73w9hww3oSn+oyPKiC2/a0Xao0FyIms3jYoO9nUTsgBJBbYfyQtJ2J7jJfyuKWk1RoRKdB+NsB3nFa5z1uMSTuTbKDOLtEHnaQ3roK1AHPgvXPh8d1BElaCcsrggpFEQhGmWcjRJPNwoEIkEYBVjx0NEjIC8elw2htt2EffC/UVvvwAxtI7NDkJZIhFTEERFoQgQk8dBaR6I8kvlhdEbevgy16OmU5p+M716OV2nQMhDPQRwRgXpDIBKEerNIk81HvlIlMc7JAzDrx+y4A7f+Suy6qzGD68LXa/x0bTKjx+UEBELDdJ9jdZlkxlLs/OeQ9BwD05eEkkUtrdKshH2K3goxlTdunHpDIBKEerNIk81H+jZYnxfto0MHSI3WBt//MHbNf6Me+AW+ur2ohqhla0vYQR6Wj4QfQtFElHNusq3RHMsZVhgPjrBCdVQ8AkEzRCI405egD3k5fv4zSMozizQPydUJpcIOFVQQbSAIgSzHERGoIwQiQagjYzTrVIrH5vBLfvcqRRDG9z+E2/A7WHcNfucDaNsPIi+rilisl7isrSXYhTK8OCICdYRAeNnXNAqcwkpyYbkb03MUzF2Jnnsirm022vmiA+Meo5BSLohFrB6pI5vGqTyCQCQIcTNMGQKPyDeLn7WyFbbeit9wFW7TzejKVpS3OFWqZXPHJLopM1S88OMiICmeOs/xWmGnzSWZvxI195QivyDtRItXTJxjQgFiwmHcSQ2GQCQIDWawppqufHzZKphBFJ1kUt1AFb31FqoP/B6/5QbSwfVoJc7YNCjJxS+tptoBDbqYWlzBQ66q+O5DSBe/GDNnJXlXTyhfTCQt0Ul/knLojV6IikUPWIMavGWnHQlCy5p+6hdeeBBCZWTIU/TSsjbUgYtEc47veyiQBbvhavyOe1HiVcgtvpbxHar2wteZZIHHFK+pt2gTzSCkvNTan4cvf1V4tOSfWuM7FqEOOBI95ykw62honxW0PpSzRbZMCCcUfw9LlMc92kT7o0WWEglCixi68ZYp5CE8jiHbie97ALfxRuzDV2F23oGkKOgS5D4NKoAiFhxHRGDcEAgJs0XKIa6Cz3Oy8nTUrOWYec/DzDk86BeopCPIGcUREWhGBCJBaEarNsmaQhWD8yJZj1MKLYRhaANu8yrcht/jttxBMrgDZURSJiZ6NYnZ62MZkkBrQAsB7ZgL81agFpwK0w9Dpx0hGVFogQn7Lnqv6sNocRbjjUAkCOONaDzf+CHgC1XGogpCnshBfza4fm0+gOlfj+9dDVuuw2+7B1/ZjraDQXRmuDeh/Gy4+EyUHotT1OiEMA/JQo+jRRCo7aOaemeorfGP7C6QsJb8WVKG9gW42Udhelagpi+Hjrmhy6KEC4QOaFWrzVExt6BFNk9LLjMShJY0e+Mv+hF/gZAIl6GG1uPXXU7+8LXkO++gZIcwvi20Nxb/Aol871XRVof4cEgbCyI1kSA0/m54/BXsyf/k9S/f/KGDorcY8Ui5KtJlWdIJVWkmac/xqHmnwKzj0G0zQUjBcKihmYGKa4sI7AWBSBDitmh4BCSXzKlCeEaLrPPOe/Cbb8FtvAHf/wCmuhNtRc3RYLEkJg3+YW9trYlUw0MQFzAiBIQWCl20aCd9Q8rYjvmoGQehZh2LOkBUDheHFtlSTzMcOIjliSMCNx7UhAhEgtCERm21JQW3sC/yEMRPILnm4jpWlR34/s3oXWvwW/6A3XE7ZmALyg7gJbdBl2oqz1GlsfH3zN5zUAoPQlGNIHskS6fjpi+hdMBS1MyjoHs5rq0HZVK0KUkpjWS+otKg7flIfkFMQ2z8HRJXMHoEIkEYPWbxF3WGwCNqt8OJB7W8Ma8szucoVUbLC2JoF27LddjNN2M33ogeeJhEV2qrKROa6wQtXE+iJT0hBStCNznO1NRu6mztrTCdx6aJePkPUhqL6GJYMGXwJazIeruc1IhqYQ7iIXIZNu1Bdx8Mc1ege56EmnEIznQUBEDKbGWPSM2slC/KnkFLIGIPaGMCbCvss7jGP0YgEoS4K1oKAekuKQI2fmgTfmADfvPtuJ33oXeuQQ9uwUs+Q60NsoQtiqxGKWQblotuKbjqZrF7koSgbOx14RSQ17mYSV7y8raXnIG0m6yjB9+5hHT2kajuJdC1EF2aiVJp3awpTiQiUO8IRIJQ7xaK8xtXBERboahjkJCERsn/zwehsg36HsbtWgO9t6J3PIjq34x1FRHCA3mxRKnccbXF2E8mXRJd4SEQm5Q6cJ0LUNMPxcw6EjoX4Tvn4kvdaN2O1eIREAEjHQW1xg56/GULIhAJQgsavZWX7KxDaXmxCAryFaqw0khHctbkU9SZ4EVgaCO+7z7ybfdC72qSHfeg8go+9OcVAafHVj/sdkk/cROe6K7eiyOz9p/2VlHiUSHsU9hL1Apz6XrYNRc343DU9ENIZi5DT5uPEw+BqGdJHoG0UpZfBO+P/LvEJAwqCCDFERGICIwEgUgQRoJSPKbpEHhUl95HVBOG0xx3C98UHoYhfGUTbmAzfsf9+L516L4HcdVtuCGRfx7ABInd8BoCnQZ5BRc6+NWiFJIUGQLetbp5+bPHdJYI77UGH3+cLzC8SFlckTwq2IvEthmO9AdtClcQs6B3IV/60syzjEs6IJ2J6VwQKgx81yLMjGWo8kxIp4djxDMwnH4SQkHDLZWHSYVcM+gVxBERiAiMBoFIEEaDVjy2ZRFwVIoXm9NIHkNih9DVXlxlE2rHQ7DjIdyuB7AD61FDG1FI4lsVRQnt5au2pvEUGk/IezAE0psfT2ECNZVLpSXhU/6W8I7kDOThaz8EfETcqtSN6pgNHXMw05ehOgtC4ESPoNSF0yWcVpR8gg4NkIq/dhckNj+ccYURgclEIBKEyUQ7XqtxEXCSMV+EB0RNLyQmKBFhCnn04RvW5AP46i58/yYY2AS71sHAGnxlPW5oB77aF+Lm2snfQiBq56mh8mgPQiN+79a+3vewckGBJIuwhpVJ8KYTlXaSts9Fdc6BrgVBqZDOhei2OdhSN1YZdJDXtrUQgxCLopIkCB3VeinhlEQO4ogIRAQmAIFIECYA1HjKJkTA57VFycupiGqH15RI7gbeIC7sIrO+5uMOX8rYoRCC8Hk/PuvHD25BVXegKr24wa34oa34ai9Ud0ClH+0qKFspWlsrcbvXyvhrUtP/v7177WkiCKM4fvbSQkG8YPSN3//baYIGIoW2a87zdAsqgRiSCQ/++4Y00M7sb0j2zG0nduN1knddZg26GNE4HIP910LKJ4LGYRDj/mjG3Ouf29FrNHxSYcah2D1wKCc/58db+069G5eaFifSeCaNp+qPPqo7Ple/+qRp9UHT0bkU0wNv1C9ONfUODMv4rFcLxETEfqvpPAWTkxJ5hV790cfJnfOzDQzyCv/fuCQEXoAAAeEFNAJV+H8Ecu9Edn/nBzzJgWB7Ld1caNpcxpkSur7Q9PObdusf2q2/a7z+qm5zJd1eabdZx35/b9f0Pv8xDhXyQwC8gNLjGXev7pGzJmLeP+69Od2R6zb9ZV6o6W75oG4YIgzc+O24koaVuuVJDPnLUwLjWw3HX6SjM3Un79QtP6sbHQCWceN3b7/rx/0Cwz9XXfw/7c6VIlBRgIBQsdWoc1mBu4c6+fbs0wEcGXy4VJ4PkT3leUFd9pn9sCf33LsIBRvp9jKOwNbWDwPaaOtwsb2RNn6/juOJ4+Wv217lVs6HXoNX9fvm7fIHTR7+HxfSsNTYj4o1A33e6LV4L/XH8d5PHVT0/HPUwJsIHXZ8wqGDxn4CIHcTeHeIr+cwkFFx6qTsvxsVR+BZAgSEZ/HxYQT+UeDekL63TDoe+JTJvJnmAsZ5wsC9/xjsj6n3nE7IGOFV+fsnO0bPP393CAW5lyJf++94qJYRSKI+c8/eWy7u/nKOK/HT5fw2feEdCbkroZeDQn5NjoocCs81A/uwEh+P6QFeCCBQQYCAUKGVqOMrFbg/7/9Qz/qx3z/12VdKxmUhgEAzAQJCM2oKQgABBBBAoI4AAaFOW1FTBBBAAAEEmgkQEJpRUxACCCCAAAJ1BAgIddqKmiKAAAIIINBMgIDQjJqCEEAAAQQQqCNAQKjTVtQUAQQQQACBZgIEhGbUFIQAAggggEAdAQJCnbaipggggAACCDQTICA0o6YgBBBAAAEE6ggQEOq0FTVFAAEEEECgmQABoRk1BSGAAAIIIFBHgIBQp62oKQIIIIAAAs0ECAjNqCkIAQQQQACBOgIEhDptRU0RQAABBBBoJkBAaEZNQQgggAACCNQRICDUaStqigACCCCAQDMBAkIzagpCAAEEEECgjgABoU5bUVMEEEAAAQSaCRAQmlFTEAIIIIAAAnUECAh12oqaIoAAAggg0EyAgNCMmoIQQAABBBCoI0BAqNNW1BQBBBBAAIFmAgSEZtQUhAACCCCAQB0BAkKdtqKmCCCAAAIINBP4BQzn5SKegmPQAAAAAElFTkSuQmCC;" vertex="1" parent="1">
          <mxGeometry x="740" y="430" width="64.46" height="60" as="geometry" />
        </mxCell>
      </root>
    </mxGraphModel>
  </diagram>
</mxfile>
